<?xml version="1.0" encoding="UTF-8" standalone="no"?>
<!-- Created with Inkscape (http://www.inkscape.org/) -->

<svg
   version="1.1"
   id="svg1"
   width="653.33331"
   height="637.33331"
   viewBox="0 0 653.33331 637.33331"
   xml:space="preserve"
   xmlns:xlink="http://www.w3.org/1999/xlink"
   xmlns="http://www.w3.org/2000/svg"
   xmlns:svg="http://www.w3.org/2000/svg"><defs
     id="defs1"><linearGradient
       id="linearGradient3"><stop
         style="stop-color:#57bcfe;stop-opacity:1;"
         offset="0"
         id="stop3" /><stop
         style="stop-color:#1e64ee;stop-opacity:1;"
         offset="1"
         id="stop4" /></linearGradient><linearGradient
       xlink:href="#linearGradient3"
       id="linearGradient4"
       x1="825.23962"
       y1="-60.06731"
       x2="825.23962"
       y2="405.32355"
       gradientUnits="userSpaceOnUse"
       gradientTransform="translate(-499.54785,147.18481)" /></defs><g
     id="g1"><path
       style="fill:#f9f9f9"
       d="m 162.03646,634.98297 c -12.46667,-0.54254 -28.96667,-1.8931 -36.66667,-3.00125 C 65.584452,623.3777 25.255152,588.37479 9.4837323,531.40104 1.2095323,501.51074 0.08685228,473.58259 0.07324228,297.30275 0.06144228,144.03259 0.51148228,131.05534 6.6666523,107.18702 18.822282,60.050309 51.449652,25.192269 96.801682,10.889599 129.02108,0.72856932 138.08899,0.36355932 342.70312,0.99120932 499.12623,1.4710393 519.40263,1.7696693 530.70313,3.7600393 c 40.13282,7.0686397 68.68412,22.6344697 89.70322,48.9051097 10.9343,13.66612 16.8867,24.82206 22.8282,42.78392 9.762,29.512111 9.326,20.528531 9.8622,203.187011 0.4887,166.46292 0.1248,183.6893 -4.5201,213.99999 -5.0755,33.11996 -15.5868,56.63934 -34.3849,76.93706 -14.8607,16.04632 -33.9581,27.99601 -56.822,35.55496 -32.41542,10.71676 -56.06992,11.85769 -233.99997,11.28648 -76.26666,-0.24484 -148.86666,-0.88906 -161.33332,-1.4316 z"
       id="path4" /><path
       style="fill:url(#linearGradient4)"
       d="m 257.9629,550.83767 c -7.91416,-4.9711 -8.39806,-7.35659 -8.39806,-41.39961 v -30.73288 l -30.33334,-0.0175 c -35.94636,-0.0208 -48.95382,-2.0636 -66.22608,-10.40089 -21.28873,-10.27603 -36.25219,-24.83791 -46.15359,-44.91493 -10.381673,-21.05087 -9.827253,-13.74344 -10.318473,-135.99999 -0.28353,-70.56755 0.0516,-113.02638 0.94532,-119.74903 2.953093,-22.21469 11.069193,-38.50486 27.419493,-55.03487 11.81896,-11.94886 22.89554,-18.857146 39.11113,-24.392996 l 10.2222,-3.489763 149.73709,-0.366606 c 146.58228,-0.358882 149.97754,-0.309496 161.15028,2.344024 17.19978,4.084945 31.02058,11.866385 43.79648,24.658491 12.0982,12.11358 19.0706,23.19399 24.3503,38.69742 l 3.6325,10.66666 v 119.33333 119.33333 l -3.4897,10.2222 c -12.1474,35.58189 -40.3941,59.98766 -77.68666,67.1229 -7.79427,1.49129 -20.54837,1.98823 -51.0285,1.98823 h -40.63695 l -45.57909,31.62217 c -65.65009,45.54715 -60.20395,42.1663 -68.81073,42.71636 -5.72785,0.36608 -8.41514,-0.14046 -11.70362,-2.20604 z m 71.42152,-72.73245 45.28249,-31.40003 h 46.50216 c 50.39664,0 54.94613,-0.49652 69.72909,-7.60993 9.68049,-4.65814 23.62409,-18.78636 28.44849,-28.82518 7.4601,-15.52301 7.5052,-16.31032 7.5052,-130.89822 0,-115.8828 -0.023,-116.25131 -8.07,-131.34966 -5.3766,-10.08756 -15.0365,-19.78327 -25.00238,-25.09502 -16.06511,-8.56262 -9.1976,-8.22198 -165.76247,-8.22198 -98.47552,0 -144.49764,0.45254 -149.38653,1.46894 -16.58987,3.44904 -33.09657,14.94713 -41.55412,28.94539 -9.85628,16.31335 -9.38436,10.21917 -9.87986,127.58566 -0.28887,68.42212 0.0453,109.07118 0.95369,116 3.56901,27.22365 23.07041,49.03713 50.02812,55.9594 6.23445,1.60089 16.22744,2.0406 46.37616,2.0406 42.14191,0 43.79524,0.2567 51.01037,7.92005 l 4,4.24849 0.41365,26.02756 c 0.34272,21.56485 0.73169,25.90551 2.26855,25.31577 1.0202,-0.39149 22.23202,-14.84181 47.13739,-32.11184 z m -19.894,-88.86494 c -62.73781,-50.19264 -89.73831,-77.04646 -102.08491,-101.53033 -23.64831,-46.8957 4.12047,-100.44543 54.82599,-105.72726 21.35322,-2.22429 45.17513,9.11094 61.76371,29.38917 4.13531,5.05509 4.44175,5.19421 5.87381,2.66667 2.82035,-4.97782 16.02992,-17.93641 22.54639,-22.11802 20.59596,-13.21639 50.50857,-12.56549 71.66067,1.55935 30.06476,20.07647 39.53732,60.07692 22.31474,94.23009 -2.49484,4.94738 -7.2009,12.59524 -10.45793,16.99524 -6.39989,8.6458 -33.04007,35.14971 -67.03472,66.69185 -11.73334,10.88684 -24.96682,23.30207 -29.40775,27.5894 l -8.07442,7.79514 z"
       id="path2" /></g></svg>
