<svg class="text-black" width="371.22314" height="374.13776" viewBox="0 0 371.22314 374.13776" xml:space="preserve" xmlns="http://www.w3.org/2000/svg" xmlns:svg="http://www.w3.org/2000/svg" preserveAspectRatio="xMidYMin">
          <g transform="translate(-92.888427,-272.43301)">
            <path d="M 100.00386,274.74231 C 93.675011,277.19421 93.009857,283.10339 93,289 v 36 c 0,4.91571 -0.903862,10.81055 2.43364,14.89124 3.756034,4.59246 9.21071,4.10839 14.56636,4.10876 13.04655,8.5e-4 33.83052,3.98602 45.99538,-0.74231 6.14946,-2.3902 6.97566,-8.48962 7.00386,-14.25769 0.0587,-11.99933 7.6e-4,-24.00049 7.6e-4,-36 0,-4.91571 0.90385,-10.81055 -2.43364,-14.89124 C 156.81039,273.51642 151.35558,274.00037 146,274 c -13.05986,-8.5e-4 -33.81358,-3.97748 -45.99614,0.74231 m 300.99999,0 C 394.67493,277.19427 394.00986,283.10339 394,289 v 36 c 0,4.91577 -0.9039,10.81049 2.43365,14.89124 3.75602,4.5924 9.21073,4.10839 14.56635,4.10876 13.04654,8.5e-4 33.83051,3.98602 45.99536,-0.74231 6.14951,-2.39026 6.97571,-8.48956 7.00388,-14.25769 0.0586,-11.99933 7.6e-4,-24.00049 7.6e-4,-36 0,-4.91589 0.9039,-10.81049 -2.43365,-14.89124 C 457.81033,273.51636 452.35562,274.00037 447,274 c -13.05984,-8.5e-4 -33.81357,-3.97748 -45.99615,0.74231 m -214.68595,1.34412 c -3.75799,2.16967 -0.3939,7.99688 3.3642,5.82714 3.75799,-2.16967 0.39392,-7.99688 -3.3642,-5.82714 m 20,0 c -3.75801,2.16967 -0.39387,7.99688 3.3642,5.82714 3.75801,-2.16967 0.3939,-7.99688 -3.3642,-5.82714 m 10,0 c -3.75798,2.16967 -0.39392,7.99688 3.3642,5.82714 3.75798,-2.16967 0.39392,-7.99688 -3.3642,-5.82714 m 20,0 c -3.75801,2.16967 -0.3939,7.99688 3.3642,5.82714 3.75801,-2.16967 0.39389,-7.99688 -3.3642,-5.82714 m 40.00385,-0.0393 c -4.24411,2.66663 0.39886,8.39239 4.3565,5.90576 4.2442,-2.66669 -0.39889,-8.39239 -4.3565,-5.90576 m 30.99615,0.0393 c -3.75806,2.16973 -0.39389,7.99688 3.3642,5.82714 3.75806,-2.16973 0.39389,-7.99688 -3.3642,-5.82714 m 30,0 c -3.75806,2.16973 -0.39389,7.99688 3.3642,5.82714 3.75802,-2.16973 0.39386,-7.99688 -3.3642,-5.82714 m 20,0 c -3.75802,2.16973 -0.39389,7.99688 3.3642,5.82714 3.75802,-2.16967 0.39389,-7.99688 -3.3642,-5.82714 m -246.31713,8.34722 c 8.6665,-2.38323 34.90653,-3.50585 40.25695,4.6103 2.29108,3.47534 1.74204,7.99682 1.74228,11.95605 6e-4,9.25116 3.9241,29.28302 -8.00076,32.56635 -8.66451,2.38562 -34.90781,3.5039 -40.25695,-4.6103 C 102.45119,325.48065 103.00025,320.95923 103,317 c -6e-4,-9.35767 -4.019295,-29.26086 8.00077,-32.56635 m 300.99999,0 c 8.66651,-2.38323 34.90653,-3.50585 40.25696,4.6103 2.29108,3.47534 1.74204,7.99682 1.74228,11.95605 5.8e-4,9.35767 4.01929,29.26093 -8.00076,32.56635 -8.66651,2.38323 -34.90653,3.50585 -40.25696,-4.6103 C 403.45117,325.48065 404.00024,320.95929 404,317 c -5.8e-4,-9.3576 -4.01932,-29.26093 8.00076,-32.56635 m -225.68286,1.65278 c -3.75799,2.16967 -0.39387,7.99688 3.3642,5.82714 3.75802,-2.16973 0.39389,-7.99688 -3.3642,-5.82714 m 10,0 c -3.75801,2.16967 -0.39389,7.99688 3.3642,5.82714 3.75802,-2.16973 0.39387,-7.99688 -3.3642,-5.82714 m 20,0 c -3.75799,2.16967 -0.3939,7.99688 3.3642,5.82714 3.75801,-2.16967 0.39389,-7.99688 -3.3642,-5.82714 m 10,0 c -3.75798,2.16967 -0.3939,7.99688 3.3642,5.82714 3.75801,-2.16967 0.39389,-7.99688 -3.3642,-5.82714 m 10,0 c -3.75801,2.16967 -0.39389,7.99688 3.3642,5.82714 3.75802,-2.16973 0.39386,-7.99688 -3.3642,-5.82714 m 10,0 c -3.75801,2.16967 -0.39387,7.99688 3.3642,5.82714 3.75801,-2.16967 0.39389,-7.99688 -3.3642,-5.82714 m 10,0 c -3.75802,2.16973 -0.39387,7.99688 3.3642,5.82714 3.75802,-2.16967 0.39392,-7.99688 -3.3642,-5.82714 m 20.00385,-0.0393 c -4.24408,2.66663 0.39883,8.39246 4.3565,5.90576 4.24417,-2.66669 -0.39886,-8.39239 -4.3565,-5.90576 m 10.99615,0.0393 c -3.75809,2.16973 -0.3938,7.99682 3.3642,5.82714 3.75802,-2.16973 0.39389,-7.99688 -3.3642,-5.82714 m 20,0 c -3.75812,2.16973 -0.39383,7.99682 3.3642,5.82714 3.75806,-2.16973 0.39389,-7.99688 -3.3642,-5.82714 m 20,0 c -3.75812,2.16973 -0.39383,7.99682 3.3642,5.82714 3.75802,-2.16973 0.39392,-7.99688 -3.3642,-5.82714 m 10,0 c -3.75812,2.16973 -0.39383,7.99682 3.3642,5.82714 3.75802,-2.16973 0.39389,-7.99688 -3.3642,-5.82714 m 10,0 c -3.75809,2.16973 -0.39383,7.99682 3.3642,5.82714 3.75802,-2.16973 0.39389,-7.99688 -3.3642,-5.82714 m 30,0 c -3.75809,2.16973 -0.39383,7.99682 3.3642,5.82714 3.75802,-2.16973 0.39389,-7.99688 -3.3642,-5.82714 m -257.31404,8.65588 c -8.28006,3.20789 -9.81924,18.73102 -4.57022,25.14893 4.09583,5.00793 14.76469,5.61969 20.56174,3.36645 8.21316,-3.19232 9.76097,-18.80322 4.57098,-25.14893 -4.0994,-5.01226 -14.76089,-5.61413 -20.5625,-3.36645 m 300.99999,0 c -8.28013,3.20789 -9.81919,18.73108 -4.5702,25.14893 4.09586,5.00793 14.76462,5.61969 20.56171,3.36645 8.21317,-3.19232 9.76099,-18.80316 4.57099,-25.14893 -4.0994,-5.01226 -14.76087,-5.61413 -20.5625,-3.36645 m -214.68595,1.34412 c -3.75802,2.16973 -0.39387,7.99688 3.3642,5.82714 3.75801,-2.16967 0.39389,-7.99688 -3.3642,-5.82714 m 20,0 c -3.75799,2.16967 -0.39392,7.99688 3.3642,5.82714 3.75799,-2.16967 0.3939,-7.99688 -3.3642,-5.82714 m 20,0 c -3.75802,2.16973 -0.3939,7.99688 3.3642,5.82714 3.75798,-2.16967 0.3939,-7.99688 -3.3642,-5.82714 m 20,0 c -3.75809,2.16973 -0.39383,7.99688 3.3642,5.82714 3.75802,-2.16967 0.39389,-7.99688 -3.3642,-5.82714 m 21,0 c -3.75809,2.16973 -0.39383,7.99682 3.3642,5.82714 3.75806,-2.16973 0.39386,-7.99688 -3.3642,-5.82714 m 10,0 c -3.75809,2.16973 -0.39386,7.99688 3.3642,5.82714 3.75806,-2.16973 0.39386,-7.99688 -3.3642,-5.82714 m 30,0 c -3.75809,2.16973 -0.39386,7.99688 3.3642,5.82714 3.75806,-2.16973 0.39389,-7.99688 -3.3642,-5.82714 m 10,0 c -3.75809,2.16973 -0.39386,7.99688 3.3642,5.82714 3.75806,-2.16973 0.39386,-7.99688 -3.3642,-5.82714 m 20,0 c -3.75806,2.16973 -0.39386,7.99688 3.3642,5.82714 3.75802,-2.16973 0.39389,-7.99688 -3.3642,-5.82714 m 10,0 c -3.75806,2.16973 -0.39386,7.99688 3.3642,5.82714 3.75806,-2.16973 0.39386,-7.99688 -3.3642,-5.82714 m -151,10 c -3.75801,2.16967 -0.39393,7.99694 3.3642,5.82714 3.75799,-2.16967 0.39389,-7.99688 -3.3642,-5.82714 m 30,0 c -3.75802,2.16973 -0.3939,7.99688 3.3642,5.82714 3.75799,-2.16967 0.39389,-7.99688 -3.3642,-5.82714 m 30.00385,-0.0393 c -4.24405,2.66656 0.3988,8.39246 4.3565,5.90576 4.24414,-2.66663 -0.39886,-8.39239 -4.3565,-5.90576 m 50.99615,0.0393 c -3.75809,2.16973 -0.39389,7.99688 3.3642,5.82714 3.75806,-2.16973 0.39389,-7.99688 -3.3642,-5.82714 m 30,0 c -3.75806,2.16973 -0.39389,7.99688 3.3642,5.82714 3.75806,-2.16973 0.39386,-7.99688 -3.3642,-5.82714 m 20,0 c -3.75806,2.16973 -0.39389,7.99688 3.3642,5.82714 3.75806,-2.16973 0.39386,-7.99688 -3.3642,-5.82714 m -191,10 c -3.75799,2.16967 -0.39389,7.99688 3.3642,5.82714 3.75806,-2.16973 0.39386,-7.99688 -3.3642,-5.82714 m 30,0 c -3.75798,2.16967 -0.39392,7.99688 3.3642,5.82714 3.75804,-2.16973 0.39386,-7.99688 -3.3642,-5.82714 m 30,0 c -3.75799,2.16967 -0.39389,7.99688 3.3642,5.82714 3.75804,-2.16973 0.39386,-7.99688 -3.3642,-5.82714 m 10,0 c -3.75801,2.16967 -0.39389,7.99688 3.3642,5.82714 3.75802,-2.16967 0.39389,-7.99688 -3.3642,-5.82714 m 51,0 c -3.75806,2.16973 -0.39386,7.99688 3.3642,5.82714 3.75806,-2.16973 0.39389,-7.99688 -3.3642,-5.82714 m 20,0 c -3.75809,2.16973 -0.39386,7.99688 3.3642,5.82714 3.75802,-2.16967 0.39389,-7.99688 -3.3642,-5.82714 m 20,0 c -3.75806,2.16973 -0.39386,7.99688 3.3642,5.82714 3.75802,-2.16973 0.39389,-7.99688 -3.3642,-5.82714 m 10,0 c -3.75806,2.16973 -0.39386,7.99688 3.3642,5.82714 3.75802,-2.16967 0.39389,-7.99688 -3.3642,-5.82714 m 10,0 c -3.75806,2.16973 -0.39389,7.99688 3.3642,5.82714 3.75802,-2.16973 0.39386,-7.99688 -3.3642,-5.82714 m 10,0 c -3.75806,2.16973 -0.39389,7.99688 3.3642,5.82714 3.75802,-2.16973 0.39386,-7.99688 -3.3642,-5.82714 m -201,10 c -3.75799,2.16967 -0.39392,7.99688 3.3642,5.82714 3.75799,-2.16967 0.3939,-7.99688 -3.3642,-5.82714 m 30,0 c -3.75801,2.16967 -0.39389,7.99688 3.3642,5.82714 3.75799,-2.16967 0.3939,-7.99688 -3.3642,-5.82714 m 10,0 c -3.75799,2.16967 -0.39393,7.99694 3.3642,5.82714 3.75798,-2.16967 0.3939,-7.99688 -3.3642,-5.82714 m 10,0 c -3.75799,2.16967 -0.39393,7.99694 3.3642,5.82714 3.75798,-2.16967 0.39392,-7.99688 -3.3642,-5.82714 m 10,0 c -3.75801,2.16967 -0.39392,7.99688 3.3642,5.82714 3.75801,-2.16967 0.39389,-7.99688 -3.3642,-5.82714 m 10,0 c -3.75801,2.16967 -0.3939,7.99688 3.3642,5.82714 3.75798,-2.16967 0.39392,-7.99688 -3.3642,-5.82714 m 10,0 c -3.75802,2.16973 -0.39392,7.99688 3.3642,5.82714 3.75802,-2.16967 0.39389,-7.99688 -3.3642,-5.82714 m 31,0 c -3.75806,2.16973 -0.39389,7.99688 3.3642,5.82714 3.75802,-2.16973 0.39389,-7.99688 -3.3642,-5.82714 m 30,0 c -3.75806,2.16973 -0.39389,7.99688 3.3642,5.82714 3.75802,-2.16967 0.39392,-7.99688 -3.3642,-5.82714 m 20,0 c -3.75806,2.16973 -0.39392,7.99688 3.3642,5.82714 3.75802,-2.16973 0.39389,-7.99688 -3.3642,-5.82714 m 10,0 c -3.75802,2.16973 -0.39392,7.99688 3.3642,5.82714 3.75802,-2.16973 0.39389,-7.99688 -3.3642,-5.82714 m 10,0 c -3.75802,2.16973 -0.39392,7.99688 3.3642,5.82714 3.75802,-2.16967 0.39389,-7.99688 -3.3642,-5.82714 m 10,0 c -3.75802,2.16967 -0.39392,7.99688 3.3642,5.82714 3.75802,-2.16973 0.39389,-7.99688 -3.3642,-5.82714 m -191,10 c -3.75799,2.16967 -0.39392,7.99688 3.3642,5.82714 3.75801,-2.16967 0.39392,-7.99688 -3.3642,-5.82714 m 20,0 c -3.75801,2.16967 -0.3939,7.99688 3.3642,5.82714 3.75801,-2.16967 0.3939,-7.99688 -3.3642,-5.82714 m 20,0 c -3.75799,2.16967 -0.39392,7.99688 3.3642,5.82714 3.75799,-2.16967 0.39392,-7.99688 -3.3642,-5.82714 m 20,0 c -3.75801,2.16967 -0.39392,7.99688 3.3642,5.82714 3.75802,-2.16973 0.39389,-7.99688 -3.3642,-5.82714 m 20,0 c -3.75802,2.16973 -0.3939,7.99688 3.3642,5.82714 3.75806,-2.16973 0.39386,-7.99688 -3.3642,-5.82714 m 20.00385,-0.0393 c -4.24408,2.66663 0.3988,8.39246 4.3565,5.90576 4.24417,-2.66669 -0.39889,-8.39239 -4.3565,-5.90576 m 20.99615,0.0393 c -3.75809,2.16973 -0.39386,7.99688 3.3642,5.82714 3.75806,-2.16973 0.39386,-7.99688 -3.3642,-5.82714 m 20,0 c -3.75809,2.16973 -0.39386,7.99688 3.3642,5.82714 3.75806,-2.16973 0.39389,-7.99688 -3.3642,-5.82714 m 20,0 c -3.75809,2.16973 -0.39389,7.99688 3.3642,5.82714 3.75806,-2.16973 0.39386,-7.99688 -3.3642,-5.82714 m 20,0 c -3.75809,2.16973 -0.39389,7.99688 3.3642,5.82714 3.75806,-2.16973 0.39386,-7.99688 -3.3642,-5.82714 m 20,0 c -3.75806,2.16973 -0.39389,7.99688 3.3642,5.82714 3.75806,-2.16973 0.39386,-7.99688 -3.3642,-5.82714 m -141,10 c -3.75804,2.16973 -0.39389,7.99688 3.3642,5.82714 3.75804,-2.16973 0.39383,-7.99688 -3.3642,-5.82714 m 10,0 c -3.75804,2.16973 -0.39389,7.99688 3.3642,5.82714 3.75802,-2.16973 0.39386,-7.99688 -3.3642,-5.82714 m 20,0 c -3.75806,2.16973 -0.39386,7.99688 3.3642,5.82714 3.75802,-2.16967 0.39389,-7.99688 -3.3642,-5.82714 m 10.00385,-0.0393 c -4.24408,2.66663 0.3988,8.39246 4.3565,5.90576 4.24417,-2.66669 -0.39889,-8.39239 -4.3565,-5.90576 m 20.99615,0.0393 c -3.75806,2.16973 -0.39389,7.99688 3.3642,5.82714 3.75806,-2.16973 0.39386,-7.99688 -3.3642,-5.82714 m 20,0 c -3.75806,2.16973 -0.39386,7.99688 3.3642,5.82714 3.75802,-2.16967 0.39392,-7.99688 -3.3642,-5.82714 m 20,0 c -3.75806,2.16973 -0.39389,7.99688 3.3642,5.82714 3.75806,-2.16973 0.39386,-7.99688 -3.3642,-5.82714 m 20,0 c -3.75802,2.16973 -0.39389,7.99688 3.3642,5.82714 3.75802,-2.16973 0.39389,-7.99688 -3.3642,-5.82714 m 10,0 c -3.75802,2.16967 -0.39389,7.99688 3.3642,5.82714 3.75806,-2.16973 0.39386,-7.99688 -3.3642,-5.82714 m -270.999998,10 c -3.758065,2.16973 -0.393853,7.99688 3.364196,5.82714 3.758042,-2.16973 0.393912,-7.99688 -3.364196,-5.82714 m 29.999998,0 c -3.75805,2.16973 -0.39386,7.99688 3.3642,5.82714 3.75799,-2.16967 0.3939,-7.99688 -3.3642,-5.82714 m 20,0 c -3.75801,2.16967 -0.39389,7.99688 3.3642,5.82714 3.75801,-2.16967 0.3939,-7.99688 -3.3642,-5.82714 m 10,0 c -3.75801,2.16967 -0.39389,7.99688 3.3642,5.82714 3.75802,-2.16973 0.3939,-7.99688 -3.3642,-5.82714 m 20,0 c -3.75801,2.16967 -0.3939,7.99688 3.3642,5.82714 3.75804,-2.16973 0.39389,-7.99688 -3.3642,-5.82714 m 10,0 c -3.75801,2.16967 -0.39389,7.99688 3.3642,5.82714 3.75802,-2.16973 0.3939,-7.99688 -3.3642,-5.82714 m 20,0 c -3.75802,2.16973 -0.39386,7.99688 3.3642,5.82714 3.75804,-2.16973 0.39389,-7.99688 -3.3642,-5.82714 m 40,0 c -3.75802,2.16973 -0.39389,7.99688 3.3642,5.82714 3.75802,-2.16973 0.3939,-7.99688 -3.3642,-5.82714 m 10,0 c -3.75804,2.16973 -0.39389,7.99688 3.3642,5.82714 3.75802,-2.16967 0.39389,-7.99688 -3.3642,-5.82714 m 10,0 c -3.75809,2.16973 -0.39383,7.99688 3.3642,5.82714 3.75802,-2.16967 0.39389,-7.99688 -3.3642,-5.82714 m 10.00385,-0.0393 c -4.24408,2.66663 0.3988,8.39246 4.3565,5.90576 4.2442,-2.66669 -0.39892,-8.39239 -4.3565,-5.90576 m 10.99615,0.0393 c -3.75806,2.16973 -0.39383,7.99682 3.3642,5.82714 3.75802,-2.16973 0.39386,-7.99688 -3.3642,-5.82714 m 10,0 c -3.75806,2.16973 -0.39386,7.99688 3.3642,5.82714 3.75802,-2.16973 0.39389,-7.99688 -3.3642,-5.82714 m 40,0 c -3.75809,2.16973 -0.39386,7.99688 3.3642,5.82714 3.75802,-2.16973 0.39389,-7.99688 -3.3642,-5.82714 m 30,0 c -3.75806,2.16973 -0.39386,7.99688 3.3642,5.82714 3.75802,-2.16973 0.39389,-7.99688 -3.3642,-5.82714 m 20,0 c -3.75806,2.16973 -0.39386,7.99688 3.3642,5.82714 3.75802,-2.16967 0.39392,-7.99688 -3.3642,-5.82714 m 20,0 c -3.75802,2.16973 -0.39386,7.99688 3.3642,5.82714 3.75802,-2.16973 0.39389,-7.99688 -3.3642,-5.82714 m -310.999998,10 c -3.758034,2.16967 -0.393891,7.99688 3.364196,5.82714 3.758022,-2.16967 0.393932,-7.99688 -3.364196,-5.82714 m 9.999998,0 c -3.75803,2.16973 -0.39388,7.99688 3.3642,5.82714 3.75802,-2.16967 0.39393,-7.99688 -3.3642,-5.82714 m 30,0 c -3.75799,2.16967 -0.3939,7.99688 3.3642,5.82714 3.75801,-2.16967 0.3939,-7.99688 -3.3642,-5.82714 m 30,0 c -3.75799,2.16967 -0.3939,7.99688 3.3642,5.82714 3.75801,-2.16967 0.39389,-7.99688 -3.3642,-5.82714 m 10,0 c -3.75799,2.16967 -0.3939,7.99688 3.3642,5.82714 3.75801,-2.16967 0.39389,-7.99688 -3.3642,-5.82714 m 10,0 c -3.75801,2.16967 -0.39389,7.99688 3.3642,5.82714 3.75801,-2.16967 0.3939,-7.99688 -3.3642,-5.82714 m 20,0 c -3.75801,2.16967 -0.39387,7.99688 3.3642,5.82714 3.75801,-2.16967 0.39389,-7.99688 -3.3642,-5.82714 m 20,0 c -3.75798,2.16967 -0.3939,7.99688 3.3642,5.82714 3.75801,-2.16967 0.3939,-7.99688 -3.3642,-5.82714 m 20,0 c -3.75801,2.16967 -0.39389,7.99688 3.3642,5.82714 3.75799,-2.16967 0.3939,-7.99688 -3.3642,-5.82714 m 10,0 c -3.75802,2.16973 -0.39389,7.99688 3.3642,5.82714 3.75802,-2.16967 0.39389,-7.99688 -3.3642,-5.82714 m 10,0 c -3.75809,2.16973 -0.39386,7.99688 3.3642,5.82714 3.75802,-2.16967 0.39389,-7.99688 -3.3642,-5.82714 m 10.00385,-0.0393 c -4.24411,2.66663 0.39883,8.39239 4.3565,5.90576 4.24417,-2.66669 -0.39886,-8.39239 -4.3565,-5.90576 m 10.99615,0.0393 c -3.75806,2.16973 -0.39383,7.99688 3.3642,5.82714 3.75806,-2.16973 0.39386,-7.99688 -3.3642,-5.82714 m 40,0 c -3.75809,2.16973 -0.39389,7.99688 3.3642,5.82714 3.75802,-2.16973 0.39389,-7.99688 -3.3642,-5.82714 m 10,0 c -3.75809,2.16973 -0.39386,7.99688 3.3642,5.82714 3.75806,-2.16973 0.39386,-7.99688 -3.3642,-5.82714 m 10,0 c -3.75806,2.16973 -0.39389,7.99688 3.3642,5.82714 3.75806,-2.16973 0.39389,-7.99688 -3.3642,-5.82714 m 10,0 c -3.75806,2.16973 -0.39386,7.99688 3.3642,5.82714 3.75802,-2.16967 0.39386,-7.99688 -3.3642,-5.82714 m 10,0 c -3.75806,2.16973 -0.39389,7.99688 3.3642,5.82714 3.75806,-2.16973 0.39386,-7.99688 -3.3642,-5.82714 m 40,0 c -3.75802,2.16973 -0.39386,7.99688 3.3642,5.82714 3.75806,-2.16973 0.39389,-7.99688 -3.3642,-5.82714 m 20,0 c -3.75806,2.16973 -0.39386,7.99688 3.3642,5.82714 3.75802,-2.16967 0.39389,-7.99688 -3.3642,-5.82714 m 30,0 c -3.75809,2.16973 -0.39389,7.99688 3.3642,5.82714 3.75802,-2.16973 0.39389,-7.99688 -3.3642,-5.82714 m -351,10 c -3.75804,2.16973 -0.39386,7.99688 3.3642,5.82714 3.75806,-2.16973 0.39389,-7.99688 -3.3642,-5.82714 m 20,0 c -3.75804,2.16973 -0.39386,7.99688 3.3642,5.82714 3.75799,-2.16967 0.39389,-7.99688 -3.3642,-5.82714 m 10,0 c -3.75801,2.16967 -0.39387,7.99688 3.3642,5.82714 3.75804,-2.16973 0.39384,-7.99688 -3.3642,-5.82714 m 10,0 c -3.75801,2.16967 -0.39387,7.99688 3.3642,5.82714 3.75802,-2.16973 0.39386,-7.99688 -3.3642,-5.82714 m 10,0 c -3.75801,2.16967 -0.39387,7.99688 3.3642,5.82714 3.75804,-2.16973 0.39384,-7.99688 -3.3642,-5.82714 m 30,0 c -3.75801,2.16967 -0.39387,7.99688 3.3642,5.82714 3.75804,-2.16973 0.39384,-7.99688 -3.3642,-5.82714 m 60,0 c -3.75802,2.16973 -0.39387,7.99688 3.3642,5.82714 3.75802,-2.16973 0.39384,-7.99688 -3.3642,-5.82714 m 20,0 c -3.75809,2.16973 -0.39386,7.99688 3.3642,5.82714 3.75806,-2.16973 0.39389,-7.99688 -3.3642,-5.82714 m 10.00385,-0.0393 c -4.24408,2.66663 0.3988,8.39246 4.3565,5.90576 4.2442,-2.66669 -0.39889,-8.39239 -4.3565,-5.90576 m 10.99615,0.0393 c -3.75809,2.16973 -0.39386,7.99688 3.3642,5.82714 3.75806,-2.16973 0.39386,-7.99688 -3.3642,-5.82714 m 20,0 c -3.75809,2.16973 -0.39389,7.99688 3.3642,5.82714 3.75809,-2.16973 0.39389,-7.99688 -3.3642,-5.82714 m 10,0 c -3.75809,2.16973 -0.39386,7.99688 3.3642,5.82714 3.75806,-2.16973 0.39392,-7.99688 -3.3642,-5.82714 m 10,0 c -3.75809,2.16973 -0.39389,7.99688 3.3642,5.82714 3.75806,-2.16973 0.39392,-7.99688 -3.3642,-5.82714 m 10,0 c -3.75809,2.16973 -0.39389,7.99688 3.3642,5.82714 3.75806,-2.16973 0.39389,-7.99688 -3.3642,-5.82714 m 20,0 c -3.75806,2.16973 -0.39389,7.99688 3.3642,5.82714 3.75806,-2.16973 0.39389,-7.99688 -3.3642,-5.82714 m 20,0 c -3.75806,2.16973 -0.39389,7.99688 3.3642,5.82714 3.75806,-2.16973 0.39389,-7.99688 -3.3642,-5.82714 m 10,0 c -3.75806,2.16973 -0.39389,7.99688 3.3642,5.82714 3.75806,-2.16973 0.39392,-7.99688 -3.3642,-5.82714 m 30,0 c -3.75809,2.16973 -0.39389,7.99688 3.3642,5.82714 3.75806,-2.16973 0.39389,-7.99688 -3.3642,-5.82714 m 10,0 c -3.75806,2.16973 -0.39389,7.99688 3.3642,5.82714 3.75802,-2.16973 0.39389,-7.99688 -3.3642,-5.82714 m 20,0 c -3.75809,2.16973 -0.39386,7.99688 3.3642,5.82714 3.75806,-2.16973 0.39389,-7.99688 -3.3642,-5.82714 m 10,0 c -3.75809,2.16973 -0.39389,7.99688 3.3642,5.82714 3.75806,-2.16973 0.39389,-7.99688 -3.3642,-5.82714 m -360.999998,10 c -3.758057,2.16973 -0.39386,7.99688 3.364196,5.82714 3.758022,-2.16967 0.393942,-7.99694 -3.364196,-5.82714 m 19.999998,0 c -3.75805,2.16973 -0.39386,7.99688 3.3642,5.82714 3.75802,-2.16967 0.39394,-7.99694 -3.3642,-5.82714 m 60,0 c -3.75799,2.16967 -0.3939,7.99688 3.3642,5.82714 3.75799,-2.16967 0.3939,-7.99688 -3.3642,-5.82714 m 10,0 c -3.75799,2.16967 -0.39389,7.99688 3.3642,5.82714 3.75799,-2.16967 0.3939,-7.99688 -3.3642,-5.82714 m 30,0 c -3.75798,2.16967 -0.39392,7.99688 3.3642,5.82714 3.75798,-2.16967 0.3939,-7.99688 -3.3642,-5.82714 m 40,0 c -3.75802,2.16973 -0.3939,7.99688 3.3642,5.82714 3.75802,-2.16967 0.39389,-7.99688 -3.3642,-5.82714 m 31,0 c -3.75806,2.16973 -0.39383,7.99688 3.3642,5.82714 3.75802,-2.16967 0.39389,-7.99688 -3.3642,-5.82714 m 10,0 c -3.75806,2.16973 -0.39386,7.99688 3.3642,5.82714 3.75802,-2.16973 0.39389,-7.99688 -3.3642,-5.82714 m 10,0 c -3.75806,2.16973 -0.39386,7.99688 3.3642,5.82714 3.75802,-2.16973 0.39389,-7.99688 -3.3642,-5.82714 m 10,0 c -3.75809,2.16973 -0.39383,7.99688 3.3642,5.82714 3.75799,-2.16967 0.39392,-7.99688 -3.3642,-5.82714 m 10,0 c -3.75809,2.16973 -0.39386,7.99688 3.3642,5.82714 3.75802,-2.16967 0.39392,-7.99688 -3.3642,-5.82714 m 10,0 c -3.75809,2.16973 -0.39386,7.99688 3.3642,5.82714 3.75802,-2.16967 0.39389,-7.99688 -3.3642,-5.82714 m 10,0 c -3.75806,2.16973 -0.39386,7.99688 3.3642,5.82714 3.75802,-2.16967 0.39389,-7.99688 -3.3642,-5.82714 m 10,0 c -3.75806,2.16973 -0.39386,7.99688 3.3642,5.82714 3.75802,-2.16967 0.39389,-7.99688 -3.3642,-5.82714 m 10,0 c -3.75806,2.16973 -0.39389,7.99688 3.3642,5.82714 3.75802,-2.16967 0.39389,-7.99688 -3.3642,-5.82714 m 20,0 c -3.75806,2.16973 -0.39386,7.99688 3.3642,5.82714 3.75802,-2.16967 0.39392,-7.99688 -3.3642,-5.82714 m 20,0 c -3.75802,2.16973 -0.39386,7.99688 3.3642,5.82714 3.75802,-2.16973 0.39389,-7.99688 -3.3642,-5.82714 m 10,0 c -3.75806,2.16973 -0.39386,7.99688 3.3642,5.82714 3.75802,-2.16967 0.39389,-7.99688 -3.3642,-5.82714 m 10,0 c -3.75806,2.16973 -0.39386,7.99688 3.3642,5.82714 3.75799,-2.16967 0.39389,-7.99688 -3.3642,-5.82714 m -291,10 c -3.75799,2.16967 -0.39392,7.99688 3.3642,5.82714 3.75801,-2.16967 0.39389,-7.99688 -3.3642,-5.82714 m 10,0 c -3.75801,2.16967 -0.39392,7.99688 3.3642,5.82714 3.75799,-2.16967 0.3939,-7.99688 -3.3642,-5.82714 m 10,0 c -3.75799,2.16967 -0.3939,7.99688 3.3642,5.82714 3.75801,-2.16967 0.39389,-7.99688 -3.3642,-5.82714 m 50,0 c -3.75801,2.16967 -0.39389,7.99688 3.3642,5.82714 3.75802,-2.16973 0.39387,-7.99688 -3.3642,-5.82714 m 30,0 c -3.75801,2.16967 -0.39392,7.99688 3.3642,5.82714 3.75802,-2.16973 0.39386,-7.99688 -3.3642,-5.82714 m 10,0 c -3.75801,2.16967 -0.3939,7.99688 3.3642,5.82714 3.75799,-2.16967 0.39389,-7.99688 -3.3642,-5.82714 m 20,0 c -3.75809,2.16973 -0.39386,7.99688 3.3642,5.82714 3.75799,-2.16967 0.39392,-7.99688 -3.3642,-5.82714 m 31,0 c -3.75806,2.16973 -0.39386,7.99688 3.3642,5.82714 3.75802,-2.16967 0.39389,-7.99688 -3.3642,-5.82714 m 10,0 c -3.75806,2.16973 -0.39386,7.99688 3.3642,5.82714 3.75802,-2.16967 0.39392,-7.99688 -3.3642,-5.82714 m 20,0 c -3.75809,2.16973 -0.39389,7.99688 3.3642,5.82714 3.75802,-2.16967 0.39395,-7.99688 -3.3642,-5.82714 m 10,0 c -3.75806,2.16973 -0.39389,7.99688 3.3642,5.82714 3.75802,-2.16967 0.39389,-7.99688 -3.3642,-5.82714 m 10,0 c -3.75806,2.16973 -0.39389,7.99688 3.3642,5.82714 3.75802,-2.16967 0.39392,-7.99688 -3.3642,-5.82714 m 30,0 c -3.75806,2.16973 -0.39389,7.99688 3.3642,5.82714 3.75802,-2.16967 0.39389,-7.99688 -3.3642,-5.82714 m 10,0 c -3.75806,2.16973 -0.39386,7.99688 3.3642,5.82714 3.75799,-2.16967 0.39395,-7.99688 -3.3642,-5.82714 m 10,0 c -3.75806,2.16973 -0.39389,7.99688 3.3642,5.82714 3.75802,-2.16967 0.39392,-7.99688 -3.3642,-5.82714 m 30,0 c -3.75806,2.16973 -0.39386,7.99688 3.3642,5.82714 3.75799,-2.16967 0.39392,-7.99688 -3.3642,-5.82714 m 10,0 c -3.75806,2.16973 -0.39389,7.99688 3.3642,5.82714 3.75802,-2.16967 0.39389,-7.99688 -3.3642,-5.82714 m 10,0 c -3.75809,2.16973 -0.39383,7.99688 3.3642,5.82714 3.75799,-2.16967 0.39392,-7.99688 -3.3642,-5.82714 m 10,0 c -3.75806,2.16973 -0.39389,7.99688 3.3642,5.82714 3.75799,-2.16967 0.39392,-7.99688 -3.3642,-5.82714 m -351,10 c -3.758,2.16967 -0.39395,7.99688 3.3642,5.82714 3.75809,-2.1697 0.3939,-7.99688 -3.3642,-5.82714 m 10,0 c -3.75801,2.16967 -0.39395,7.99688 3.3642,5.82714 3.75809,-2.1697 0.39389,-7.99688 -3.3642,-5.82714 m 10,0 c -3.75801,2.16967 -0.39396,7.99691 3.3642,5.82714 3.75799,-2.16967 0.39392,-7.99688 -3.3642,-5.82714 m 20,0 c -3.75799,2.16967 -0.39393,7.99688 3.3642,5.82714 3.75801,-2.16967 0.3939,-7.99688 -3.3642,-5.82714 m 20,0 c -3.75798,2.16967 -0.39393,7.99688 3.3642,5.82714 3.75804,-2.16967 0.39389,-7.99688 -3.3642,-5.82714 m 10,0 c -3.75798,2.16967 -0.39393,7.99688 3.3642,5.82714 3.75802,-2.16967 0.39389,-7.99688 -3.3642,-5.82714 m 20,0 c -3.75796,2.16967 -0.39395,7.99691 3.3642,5.82714 3.75802,-2.16967 0.3939,-7.99688 -3.3642,-5.82714 m 10,0 c -3.75798,2.16967 -0.39395,7.99688 3.3642,5.82714 3.75802,-2.16967 0.39389,-7.99688 -3.3642,-5.82714 m 10,0 c -3.75799,2.16967 -0.39393,7.99688 3.3642,5.82714 3.75802,-2.16967 0.3939,-7.99688 -3.3642,-5.82714 m 10,0 c -3.75798,2.16967 -0.39395,7.99691 3.3642,5.82714 3.75801,-2.16967 0.39389,-7.99688 -3.3642,-5.82714 m 111,0 c -3.75806,2.1697 -0.39392,7.99688 3.3642,5.82714 3.75799,-2.16964 0.39389,-7.99688 -3.3642,-5.82714 m 10,0 c -3.75809,2.1697 -0.39392,7.99688 3.3642,5.82714 3.75799,-2.16964 0.39392,-7.99688 -3.3642,-5.82714 m 40,0 c -3.75806,2.1697 -0.39392,7.99688 3.3642,5.82714 3.75802,-2.16967 0.39392,-7.99688 -3.3642,-5.82714 m 10,0 c -3.75809,2.16973 -0.39392,7.99688 3.3642,5.82714 3.75799,-2.16964 0.39392,-7.99688 -3.3642,-5.82714 m 10,0 c -3.75809,2.16973 -0.39392,7.99688 3.3642,5.82714 3.75799,-2.16967 0.39392,-7.99688 -3.3642,-5.82714 m 30,0 c -3.75809,2.16973 -0.39392,7.99688 3.3642,5.82714 3.75802,-2.16967 0.39392,-7.99688 -3.3642,-5.82714 m 10,0 c -3.75809,2.16973 -0.39392,7.99688 3.3642,5.82714 3.75802,-2.16967 0.39389,-7.99688 -3.3642,-5.82714 m -350.999998,10 c -3.758057,2.1697 -0.393906,7.99688 3.364196,5.82714 3.758042,-2.16967 0.393942,-7.99688 -3.364196,-5.82714 m 9.999998,0 c -3.75806,2.1697 -0.3939,7.99685 3.3642,5.82714 3.75804,-2.16967 0.39394,-7.99688 -3.3642,-5.82714 m 30,0 c -3.75802,2.16967 -0.3939,7.99688 3.3642,5.82714 3.75802,-2.16967 0.3939,-7.99688 -3.3642,-5.82714 m 10,0 c -3.75802,2.16967 -0.39392,7.99688 3.3642,5.82714 3.75801,-2.16967 0.3939,-7.99688 -3.3642,-5.82714 m 10,0 c -3.75802,2.16967 -0.3939,7.99688 3.3642,5.82714 3.75802,-2.16967 0.3939,-7.99688 -3.3642,-5.82714 m 30,0 c -3.75802,2.16967 -0.39392,7.99688 3.3642,5.82714 3.75801,-2.16967 0.3939,-7.99688 -3.3642,-5.82714 m 20,0 c -3.75801,2.16967 -0.39392,7.99688 3.3642,5.82714 3.75801,-2.16967 0.39392,-7.99688 -3.3642,-5.82714 m 10,0 c -3.75802,2.16967 -0.39392,7.99688 3.3642,5.82714 3.75802,-2.16967 0.3939,-7.99688 -3.3642,-5.82714 m 10,0 c -3.75801,2.16967 -0.39392,7.99688 3.3642,5.82714 3.75804,-2.16967 0.3939,-7.99688 -3.3642,-5.82714 m 101,0 c -3.75802,2.16967 -0.39395,7.99688 3.3642,5.82714 3.75812,-2.16973 0.39389,-7.99685 -3.3642,-5.82714 m 20,0 c -3.75802,2.16967 -0.39392,7.99688 3.3642,5.82714 3.75809,-2.1697 0.39389,-7.99685 -3.3642,-5.82714 m 10,0 c -3.75802,2.16967 -0.39392,7.99688 3.3642,5.82714 3.75812,-2.16973 0.39389,-7.99685 -3.3642,-5.82714 m 50,0 c -3.75802,2.16967 -0.39392,7.99688 3.3642,5.82714 3.75812,-2.16973 0.39389,-7.99685 -3.3642,-5.82714 m 10,0 c -3.75799,2.16964 -0.39395,7.99688 3.3642,5.82714 3.75806,-2.1697 0.39392,-7.99688 -3.3642,-5.82714 m 20,0 c -3.75806,2.1697 -0.39389,7.99685 3.3642,5.82714 3.75812,-2.16973 0.39392,-7.99688 -3.3642,-5.82714 m -340.999998,10 c -3.758042,2.16967 -0.393929,7.99688 3.364196,5.82714 3.758062,-2.1697 0.393912,-7.99688 -3.364196,-5.82714 m 29.999998,0 c -3.75806,2.1697 -0.39391,7.99688 3.3642,5.82714 3.75804,-2.1697 0.39392,-7.99688 -3.3642,-5.82714 m 40,0 c -3.75799,2.16967 -0.39393,7.99688 3.3642,5.82714 3.75804,-2.1697 0.39389,-7.99688 -3.3642,-5.82714 m 10,0 c -3.75802,2.16967 -0.3939,7.99688 3.3642,5.82714 3.75804,-2.1697 0.3939,-7.99688 -3.3642,-5.82714 m 10,0 c -3.75802,2.16967 -0.3939,7.99688 3.3642,5.82714 3.75804,-2.16967 0.39392,-7.99688 -3.3642,-5.82714 m 30,0 c -3.75802,2.16967 -0.3939,7.99688 3.3642,5.82714 3.75804,-2.1697 0.39392,-7.99688 -3.3642,-5.82714 m 10,0 c -3.75801,2.16967 -0.3939,7.99688 3.3642,5.82714 3.75806,-2.1697 0.3939,-7.99688 -3.3642,-5.82714 m 141,0 c -3.75799,2.16964 -0.39398,7.99691 3.3642,5.82714 3.75809,-2.1697 0.39392,-7.99688 -3.3642,-5.82714 m 10,0 c -3.75796,2.16964 -0.39398,7.99691 3.3642,5.82714 3.75809,-2.1697 0.39392,-7.99688 -3.3642,-5.82714 m 10,0 c -3.75799,2.16964 -0.39395,7.99688 3.3642,5.82714 3.75806,-2.1697 0.39395,-7.99688 -3.3642,-5.82714 m 10,0 c -3.75799,2.16967 -0.39392,7.99688 3.3642,5.82714 3.75809,-2.1697 0.39389,-7.99685 -3.3642,-5.82714 m 20,0 c -3.75796,2.16964 -0.39398,7.99691 3.3642,5.82714 3.75806,-2.16967 0.39392,-7.99688 -3.3642,-5.82714 m 30,0 c -3.75799,2.16964 -0.39395,7.99691 3.3642,5.82714 3.75809,-2.1697 0.39389,-7.99685 -3.3642,-5.82714 m 10,0 c -3.75799,2.16964 -0.39395,7.99688 3.3642,5.82714 3.75809,-2.1697 0.39392,-7.99688 -3.3642,-5.82714 m -341,10 c -3.75804,2.16967 -0.39393,7.99688 3.3642,5.82714 3.75804,-2.16967 0.39392,-7.99688 -3.3642,-5.82714 m 10,0 c -3.75806,2.1697 -0.3939,7.99688 3.3642,5.82714 3.75802,-2.16967 0.39392,-7.99688 -3.3642,-5.82714 m 20,0 c -3.75801,2.16967 -0.3939,7.99688 3.3642,5.82714 3.75799,-2.16967 0.39393,-7.99688 -3.3642,-5.82714 m 10,0 c -3.75802,2.16967 -0.3939,7.99688 3.3642,5.82714 3.75801,-2.16967 0.39393,-7.99688 -3.3642,-5.82714 m 10,0 c -3.75799,2.16967 -0.39393,7.99688 3.3642,5.82714 3.75801,-2.16967 0.39392,-7.99688 -3.3642,-5.82714 m 10,0 c -3.75801,2.16967 -0.3939,7.99688 3.3642,5.82714 3.75801,-2.16967 0.39392,-7.99688 -3.3642,-5.82714 m 10,0 c -3.75801,2.16967 -0.3939,7.99688 3.3642,5.82714 3.75801,-2.16967 0.39395,-7.99688 -3.3642,-5.82714 m 10,0 c -3.75801,2.16967 -0.3939,7.99688 3.3642,5.82714 3.75799,-2.16967 0.39395,-7.99688 -3.3642,-5.82714 m 20,0 c -3.75802,2.16967 -0.3939,7.99688 3.3642,5.82714 3.75801,-2.16967 0.39395,-7.99688 -3.3642,-5.82714 m 10,0 c -3.75801,2.16967 -0.3939,7.99688 3.3642,5.82714 3.75802,-2.16967 0.39393,-7.99688 -3.3642,-5.82714 m 121,0 c -3.75799,2.16964 -0.39392,7.99688 3.3642,5.82714 3.75809,-2.1697 0.39389,-7.99685 -3.3642,-5.82714 m 40,0 c -3.75799,2.16964 -0.39395,7.99688 3.3642,5.82714 3.75806,-2.1697 0.39395,-7.99688 -3.3642,-5.82714 m 20,0 c -3.75802,2.16967 -0.39392,7.99688 3.3642,5.82714 3.75809,-2.1697 0.39389,-7.99685 -3.3642,-5.82714 m 10,0 c -3.75799,2.16964 -0.39398,7.99691 3.3642,5.82714 3.75806,-2.16967 0.39392,-7.99688 -3.3642,-5.82714 m 10,0 c -3.75799,2.16967 -0.39395,7.99691 3.3642,5.82714 3.75809,-2.1697 0.39389,-7.99685 -3.3642,-5.82714 m 10,0 c -3.75802,2.16967 -0.39389,7.99685 3.3642,5.82714 3.75809,-2.1697 0.39392,-7.99688 -3.3642,-5.82714 m 10,0 c -3.75799,2.16967 -0.39395,7.99691 3.3642,5.82714 3.75809,-2.1697 0.39389,-7.99685 -3.3642,-5.82714 m -341,10 c -3.75806,2.1697 -0.39391,7.99688 3.3642,5.82714 3.75805,-2.16967 0.39391,-7.99688 -3.3642,-5.82714 m 10,0 c -3.75805,2.16967 -0.39393,7.99688 3.3642,5.82714 3.75805,-2.16967 0.39392,-7.99688 -3.3642,-5.82714 m 10,0 c -3.75806,2.1697 -0.3939,7.99688 3.3642,5.82714 3.75802,-2.16967 0.39393,-7.99688 -3.3642,-5.82714 m 40,0 c -3.75801,2.16967 -0.39393,7.99688 3.3642,5.82714 3.75802,-2.16967 0.39392,-7.99688 -3.3642,-5.82714 m 20,0 c -3.75802,2.16967 -0.39392,7.99688 3.3642,5.82714 3.75801,-2.16967 0.39393,-7.99688 -3.3642,-5.82714 m 30,0 c -3.75802,2.16967 -0.3939,7.99688 3.3642,5.82714 3.75802,-2.16967 0.39393,-7.99688 -3.3642,-5.82714 m 10,0 c -3.75801,2.16967 -0.3939,7.99688 3.3642,5.82714 3.75802,-2.16967 0.39392,-7.99688 -3.3642,-5.82714 m 131,0 c -3.75802,2.16967 -0.39392,7.99688 3.3642,5.82714 3.75812,-2.16973 0.39389,-7.99685 -3.3642,-5.82714 m 10,0 c -3.75799,2.16967 -0.39395,7.99688 3.3642,5.82714 3.75809,-2.1697 0.39392,-7.99688 -3.3642,-5.82714 m 10,0 c -3.75799,2.16964 -0.39395,7.99688 3.3642,5.82714 3.75809,-2.1697 0.39392,-7.99688 -3.3642,-5.82714 m 60,0 c -3.75806,2.1697 -0.39386,7.99685 3.3642,5.82714 3.75809,-2.1697 0.39392,-7.99688 -3.3642,-5.82714 m 10,0 c -3.75802,2.16967 -0.39395,7.99688 3.3642,5.82714 3.75809,-2.1697 0.39389,-7.99685 -3.3642,-5.82714 m 10,0 c -3.75802,2.16967 -0.39392,7.99688 3.3642,5.82714 3.75806,-2.1697 0.39392,-7.99688 -3.3642,-5.82714 m -361.003859,10 c -3.956436,2.25524 -0.853409,9.23568 3.371918,6.82714 3.956501,-2.25528 0.853351,-9.23562 -3.371918,-6.82714 m 19.999999,0 c -3.95644,2.25524 -0.85339,9.23565 3.37192,6.82714 3.9565,-2.25528 0.85335,-9.23562 -3.37192,-6.82714 m 30,0 c -3.95645,2.25524 -0.85338,9.23565 3.37192,6.82714 3.95647,-2.25528 0.85336,-9.23565 -3.37192,-6.82714 m 10,0 c -3.95645,2.25528 -0.85338,9.23565 3.37192,6.82714 3.95647,-2.25528 0.85336,-9.23565 -3.37192,-6.82714 m 40,0 c -3.95645,2.25524 -0.85336,9.23565 3.37192,6.82714 3.95647,-2.25528 0.85335,-9.23565 -3.37192,-6.82714 m 150.99999,0 c -3.95643,2.25524 -0.8534,9.23568 3.37194,6.82714 3.95655,-2.25531 0.85334,-9.23565 -3.37194,-6.82714 m 20,0 c -3.95639,2.25521 -0.85343,9.23568 3.37194,6.82714 3.95658,-2.25531 0.85334,-9.23562 -3.37194,-6.82714 m 10,0 c -3.95643,2.25524 -0.8534,9.23568 3.37194,6.82714 3.95658,-2.25531 0.85334,-9.23562 -3.37194,-6.82714 m 70,0 c -3.95639,2.25521 -0.85343,9.23568 3.37194,6.82714 3.95658,-2.25531 0.85331,-9.23562 -3.37194,-6.82714 m 10,0 c -3.95646,2.25524 -0.85337,9.23565 3.37194,6.82714 3.95658,-2.25531 0.85331,-9.23562 -3.37194,-6.82714 m -330.99613,11 c -3.75806,2.1697 -0.39391,7.99688 3.3642,5.82714 3.75804,-2.16967 0.39393,-7.99688 -3.3642,-5.82714 m 10,0 c -3.75802,2.16967 -0.3939,7.99688 3.3642,5.82714 3.75802,-2.16967 0.39392,-7.99688 -3.3642,-5.82714 m 50,0 c -3.75802,2.16967 -0.39392,7.99688 3.3642,5.82714 3.75801,-2.16967 0.39393,-7.99688 -3.3642,-5.82714 m 10,0 c -3.75802,2.16967 -0.39392,7.99688 3.3642,5.82714 3.75801,-2.16967 0.39393,-7.99688 -3.3642,-5.82714 m 131,0 c -3.75806,2.16967 -0.39395,7.99688 3.3642,5.82714 3.75809,-2.1697 0.39389,-7.99685 -3.3642,-5.82714 m 30,0 c -3.75802,2.16967 -0.39392,7.99688 3.3642,5.82714 3.75812,-2.16973 0.39389,-7.99685 -3.3642,-5.82714 m 50,0 c -3.75806,2.16967 -0.39392,7.99688 3.3642,5.82714 3.75809,-2.1697 0.39389,-7.99685 -3.3642,-5.82714 m 10,0 c -3.75802,2.16967 -0.39395,7.99688 3.3642,5.82714 3.75802,-2.16967 0.39395,-7.99688 -3.3642,-5.82714 m 30,0 c -3.75802,2.16967 -0.39395,7.99688 3.3642,5.82714 3.75809,-2.1697 0.39392,-7.99685 -3.3642,-5.82714 m -350.999998,10 c -3.758049,2.16967 -0.393906,7.99685 3.364196,5.82714 3.758052,-2.16967 0.393912,-7.99688 -3.364196,-5.82714 m 29.999998,0 c -3.75807,2.1697 -0.39387,7.99685 3.3642,5.82714 3.75804,-2.16967 0.3939,-7.99688 -3.3642,-5.82714 m 10,0 c -3.75801,2.16967 -0.39392,7.99688 3.3642,5.82714 3.75801,-2.16967 0.39393,-7.99688 -3.3642,-5.82714 m 10,0 c -3.75801,2.16967 -0.39392,7.99688 3.3642,5.82714 3.75799,-2.16967 0.39393,-7.99688 -3.3642,-5.82714 m 10,0 c -3.75801,2.16967 -0.39392,7.99688 3.3642,5.82714 3.75801,-2.16967 0.39393,-7.99688 -3.3642,-5.82714 m 10,0 c -3.75799,2.16967 -0.39395,7.99691 3.3642,5.82714 3.75801,-2.16967 0.39392,-7.99688 -3.3642,-5.82714 m 50,0 c -3.75801,2.16967 -0.39393,7.99688 3.3642,5.82714 3.75801,-2.16967 0.39393,-7.99688 -3.3642,-5.82714 m 111,0 c -3.75806,2.1697 -0.39392,7.99685 3.3642,5.82714 3.75809,-2.1697 0.39389,-7.99685 -3.3642,-5.82714 m 10,0 c -3.75806,2.1697 -0.39389,7.99685 3.3642,5.82714 3.75809,-2.1697 0.39392,-7.99688 -3.3642,-5.82714 m 10,0 c -3.75806,2.16967 -0.39389,7.99685 3.3642,5.82714 3.75809,-2.1697 0.39392,-7.99688 -3.3642,-5.82714 m 10,0 c -3.75806,2.1697 -0.39389,7.99685 3.3642,5.82714 3.75812,-2.16973 0.39389,-7.99685 -3.3642,-5.82714 m 10,0 c -3.75802,2.16967 -0.39392,7.99688 3.3642,5.82714 3.75809,-2.1697 0.39392,-7.99688 -3.3642,-5.82714 m 10,0 c -3.75802,2.16967 -0.39392,7.99688 3.3642,5.82714 3.75809,-2.1697 0.39392,-7.99688 -3.3642,-5.82714 m 20,0 c -3.75806,2.1697 -0.39389,7.99685 3.3642,5.82714 3.75806,-2.1697 0.39392,-7.99688 -3.3642,-5.82714 m 20,0 c -3.75802,2.16967 -0.39392,7.99688 3.3642,5.82714 3.75806,-2.16967 0.39395,-7.99688 -3.3642,-5.82714 m 20,0 c -3.75809,2.1697 -0.39383,7.99682 3.3642,5.82714 3.75809,-2.1697 0.39392,-7.99688 -3.3642,-5.82714 m 10,0 c -3.75806,2.16967 -0.39392,7.99688 3.3642,5.82714 3.75809,-2.1697 0.39389,-7.99685 -3.3642,-5.82714 m -350.999998,10 c -3.758034,2.16967 -0.393944,7.99688 3.364196,5.82714 3.758042,-2.16967 0.393932,-7.99688 -3.364196,-5.82714 m 9.999998,0 c -3.75804,2.16967 -0.39393,7.99688 3.3642,5.82714 3.75803,-2.16967 0.39393,-7.99688 -3.3642,-5.82714 m 10,0 c -3.75804,2.16967 -0.39393,7.99688 3.3642,5.82714 3.75803,-2.16967 0.39393,-7.99688 -3.3642,-5.82714 m 20,0 c -3.75802,2.16967 -0.3939,7.99688 3.3642,5.82714 3.75802,-2.16967 0.39392,-7.99688 -3.3642,-5.82714 m 30,0 c -3.75799,2.16967 -0.39393,7.99688 3.3642,5.82714 3.75802,-2.16967 0.3939,-7.99688 -3.3642,-5.82714 m 20,0 c -3.75802,2.16967 -0.3939,7.99688 3.3642,5.82714 3.75801,-2.16967 0.39393,-7.99688 -3.3642,-5.82714 m 10,0 c -3.75802,2.16967 -0.39392,7.99688 3.3642,5.82714 3.75801,-2.16967 0.39392,-7.99688 -3.3642,-5.82714 m 10,0 c -3.75801,2.16967 -0.3939,7.99688 3.3642,5.82714 3.75799,-2.16967 0.39393,-7.99688 -3.3642,-5.82714 m 131,0 c -3.75806,2.16967 -0.39392,7.99688 3.3642,5.82714 3.75809,-2.1697 0.39392,-7.99685 -3.3642,-5.82714 m 10,0 c -3.75802,2.16967 -0.39392,7.99688 3.3642,5.82714 3.75809,-2.1697 0.39389,-7.99685 -3.3642,-5.82714 m 30,0 c -3.75799,2.16964 -0.39398,7.99691 3.3642,5.82714 3.75809,-2.1697 0.39392,-7.99685 -3.3642,-5.82714 m 10,0 c -3.75802,2.16967 -0.39395,7.99688 3.3642,5.82714 3.75806,-2.1697 0.39392,-7.99688 -3.3642,-5.82714 m 10,0 c -3.75802,2.16967 -0.39392,7.99688 3.3642,5.82714 3.75809,-2.1697 0.39389,-7.99685 -3.3642,-5.82714 m 10,0 c -3.75802,2.16967 -0.39392,7.99688 3.3642,5.82714 3.75812,-2.16973 0.39389,-7.99685 -3.3642,-5.82714 m 20,0 c -3.75802,2.16967 -0.39398,7.99691 3.3642,5.82714 3.75809,-2.1697 0.39389,-7.99685 -3.3642,-5.82714 m -321,10 c -3.75805,2.16967 -0.39392,7.99688 3.3642,5.82714 3.75806,-2.1697 0.3939,-7.99685 -3.3642,-5.82714 m 30,0 c -3.75802,2.16967 -0.39389,7.99688 3.3642,5.82714 3.75802,-2.16967 0.3939,-7.99688 -3.3642,-5.82714 m 20,0 c -3.75802,2.16967 -0.3939,7.99688 3.3642,5.82714 3.75802,-2.16967 0.3939,-7.99688 -3.3642,-5.82714 m 10,0 c -3.75799,2.16967 -0.39393,7.99688 3.3642,5.82714 3.75802,-2.16967 0.39389,-7.99685 -3.3642,-5.82714 m 10,0 c -3.75802,2.16967 -0.3939,7.99688 3.3642,5.82714 3.75802,-2.16967 0.39389,-7.99685 -3.3642,-5.82714 m 40,0 c -3.75802,2.16967 -0.3939,7.99688 3.3642,5.82714 3.75802,-2.16967 0.3939,-7.99688 -3.3642,-5.82714 m 10,0 c -3.75801,2.16967 -0.3939,7.99688 3.3642,5.82714 3.75804,-2.16967 0.3939,-7.99688 -3.3642,-5.82714 m 111,0 c -3.75806,2.16967 -0.39392,7.99688 3.3642,5.82714 3.75809,-2.1697 0.39389,-7.99685 -3.3642,-5.82714 m 10,0 c -3.75802,2.16967 -0.39392,7.99688 3.3642,5.82714 3.75812,-2.1697 0.39389,-7.99685 -3.3642,-5.82714 m 10,0 c -3.75802,2.16967 -0.39392,7.99688 3.3642,5.82714 3.75815,-2.16973 0.39386,-7.99685 -3.3642,-5.82714 m 20,0 c -3.75799,2.16964 -0.39395,7.99688 3.3642,5.82714 3.75812,-2.16973 0.39389,-7.99685 -3.3642,-5.82714 m 20,0 c -3.75802,2.16967 -0.39392,7.99688 3.3642,5.82714 3.75809,-2.1697 0.39389,-7.99685 -3.3642,-5.82714 m 60,0 c -3.75802,2.16967 -0.39392,7.99688 3.3642,5.82714 3.75809,-2.1697 0.39389,-7.99685 -3.3642,-5.82714 m -341,10 c -3.75804,2.16967 -0.39392,7.99688 3.3642,5.82714 3.75804,-2.16967 0.39393,-7.99688 -3.3642,-5.82714 m 20,0 c -3.75802,2.16967 -0.3939,7.99688 3.3642,5.82714 3.75801,-2.16967 0.39393,-7.99688 -3.3642,-5.82714 m 30,0 c -3.75799,2.16967 -0.39393,7.99688 3.3642,5.82714 3.75801,-2.16967 0.39392,-7.99688 -3.3642,-5.82714 m 10,0 c -3.75801,2.16967 -0.3939,7.99688 3.3642,5.82714 3.75801,-2.16967 0.39392,-7.99688 -3.3642,-5.82714 m 20,0 c -3.75801,2.16967 -0.39392,7.99688 3.3642,5.82714 3.75799,-2.16967 0.39393,-7.99688 -3.3642,-5.82714 m 10,0 c -3.75801,2.16967 -0.39392,7.99688 3.3642,5.82714 3.75799,-2.16967 0.39395,-7.99691 -3.3642,-5.82714 m 121,0 c -3.75802,2.16967 -0.39395,7.99688 3.3642,5.82714 3.75809,-2.1697 0.39389,-7.99685 -3.3642,-5.82714 m 10,0 c -3.75806,2.16967 -0.39392,7.99688 3.3642,5.82714 3.75806,-2.1697 0.39392,-7.99688 -3.3642,-5.82714 m 10,0 c -3.75802,2.16967 -0.39389,7.99682 3.3642,5.82714 3.75809,-2.1697 0.39392,-7.99688 -3.3642,-5.82714 m 20,0 c -3.75799,2.16967 -0.39395,7.99688 3.3642,5.82714 3.75809,-2.1697 0.39392,-7.99688 -3.3642,-5.82714 m 20,0 c -3.75802,2.16967 -0.39392,7.99688 3.3642,5.82714 3.75806,-2.16967 0.39395,-7.99688 -3.3642,-5.82714 m 60,0 c -3.75802,2.16967 -0.39395,7.99688 3.3642,5.82714 3.75809,-2.1697 0.39392,-7.99688 -3.3642,-5.82714 m -311,10 c -3.75802,2.16967 -0.3939,7.99688 3.3642,5.82714 3.75804,-2.16967 0.3939,-7.99688 -3.3642,-5.82714 m 20,0 c -3.75802,2.16967 -0.3939,7.99688 3.3642,5.82714 3.75804,-2.16967 0.3939,-7.99688 -3.3642,-5.82714 m 20,0 c -3.75802,2.16967 -0.3939,7.99688 3.3642,5.82714 3.75804,-2.16967 0.39389,-7.99682 -3.3642,-5.82714 m 20,0 c -3.75802,2.16967 -0.39392,7.99688 3.3642,5.82714 3.75802,-2.16967 0.3939,-7.99688 -3.3642,-5.82714 m 20,0 c -3.75802,2.16967 -0.39392,7.99688 3.3642,5.82714 3.75804,-2.16967 0.3939,-7.99688 -3.3642,-5.82714 m 10,0 c -3.75801,2.16967 -0.3939,7.99688 3.3642,5.82714 3.75806,-2.16967 0.3939,-7.99688 -3.3642,-5.82714 m 10,0 c -3.75802,2.16967 -0.39392,7.99688 3.3642,5.82714 3.75802,-2.16967 0.39392,-7.99688 -3.3642,-5.82714 m 10,0 c -3.75802,2.16967 -0.3939,7.99688 3.3642,5.82714 3.75804,-2.16967 0.39389,-7.99688 -3.3642,-5.82714 m 10,0 c -3.75802,2.16967 -0.3939,7.99688 3.3642,5.82714 3.75809,-2.16967 0.39389,-7.99688 -3.3642,-5.82714 m 20.00385,-0.0394 c -4.24408,2.66656 0.39877,8.39258 4.3565,5.90588 4.24424,-2.66669 -0.39886,-8.39252 -4.3565,-5.90588 m 10.99615,0.0394 c -3.75806,2.16967 -0.39389,7.99682 3.3642,5.82714 3.75812,-2.16973 0.39389,-7.99682 -3.3642,-5.82714 m 40,0 c -3.75802,2.16967 -0.39395,7.99688 3.3642,5.82714 3.75812,-2.16973 0.39389,-7.99682 -3.3642,-5.82714 m 10,0 c -3.75806,2.16967 -0.39392,7.99688 3.3642,5.82714 3.75809,-2.16967 0.39392,-7.99688 -3.3642,-5.82714 m 20,0 c -3.75802,2.16967 -0.39392,7.99688 3.3642,5.82714 3.75812,-2.16973 0.39389,-7.99682 -3.3642,-5.82714 m 40,0 c -3.75802,2.16967 -0.39392,7.99688 3.3642,5.82714 3.75809,-2.16967 0.39389,-7.99682 -3.3642,-5.82714 m 10,0 c -3.75802,2.16967 -0.39392,7.99688 3.3642,5.82714 3.75809,-2.16967 0.39389,-7.99682 -3.3642,-5.82714 m 10,0 c -3.75799,2.16967 -0.39395,7.99688 3.3642,5.82714 3.75806,-2.16967 0.39392,-7.99688 -3.3642,-5.82714 m 10,0 c -3.75802,2.16967 -0.39395,7.99688 3.3642,5.82714 3.75809,-2.16967 0.39389,-7.99682 -3.3642,-5.82714 m 30,0 c -3.75802,2.16967 -0.39392,7.99688 3.3642,5.82714 3.75809,-2.16967 0.39389,-7.99682 -3.3642,-5.82714 m -351,10 c -3.75806,2.16967 -0.3939,7.99682 3.3642,5.82714 3.75805,-2.16967 0.39393,-7.99688 -3.3642,-5.82714 m 10,0 c -3.75806,2.16967 -0.39391,7.99688 3.3642,5.82714 3.75804,-2.16967 0.39393,-7.99688 -3.3642,-5.82714 m 10,0 c -3.75807,2.16967 -0.39389,7.99682 3.3642,5.82714 3.75802,-2.16967 0.39392,-7.99688 -3.3642,-5.82714 m 20,0 c -3.75802,2.16967 -0.39392,7.99688 3.3642,5.82714 3.75804,-2.16967 0.39389,-7.99688 -3.3642,-5.82714 m 50,0 c -3.75802,2.16967 -0.39392,7.99688 3.3642,5.82714 3.75804,-2.16967 0.3939,-7.99688 -3.3642,-5.82714 m 20,0 c -3.75802,2.16967 -0.39392,7.99688 3.3642,5.82714 3.75804,-2.16967 0.3939,-7.99688 -3.3642,-5.82714 m 30,0 c -3.75802,2.16967 -0.3939,7.99688 3.3642,5.82714 3.75804,-2.16967 0.39389,-7.99682 -3.3642,-5.82714 m 20,0 c -3.75806,2.16967 -0.39392,7.99688 3.3642,5.82714 3.75809,-2.16967 0.39392,-7.99688 -3.3642,-5.82714 m 10.00385,-0.0394 c -4.24408,2.66656 0.39877,8.39252 4.3565,5.90588 4.2442,-2.66669 -0.39883,-8.39252 -4.3565,-5.90588 m 40.99615,0.0394 c -3.75806,2.16967 -0.39392,7.99688 3.3642,5.82714 3.75809,-2.16967 0.39389,-7.99682 -3.3642,-5.82714 m 10,0 c -3.75806,2.16967 -0.39392,7.99688 3.3642,5.82714 3.75809,-2.16967 0.39389,-7.99682 -3.3642,-5.82714 m 10,0 c -3.75806,2.16967 -0.39389,7.99682 3.3642,5.82714 3.75809,-2.16967 0.39392,-7.99688 -3.3642,-5.82714 m 10,0 c -3.75802,2.16967 -0.39389,7.99682 3.3642,5.82714 3.75809,-2.16967 0.39389,-7.99682 -3.3642,-5.82714 m 10,0 c -3.75806,2.16967 -0.39389,7.99682 3.3642,5.82714 3.75812,-2.16973 0.39389,-7.99682 -3.3642,-5.82714 m 10,0 c -3.75802,2.16967 -0.39395,7.99688 3.3642,5.82714 3.75809,-2.16967 0.39392,-7.99688 -3.3642,-5.82714 m 10,0 c -3.75802,2.16967 -0.39395,7.99688 3.3642,5.82714 3.75809,-2.16967 0.39392,-7.99688 -3.3642,-5.82714 m 50,0 c -3.75802,2.16967 -0.39395,7.99688 3.3642,5.82714 3.75809,-2.16967 0.39389,-7.99682 -3.3642,-5.82714 m 10,0 c -3.75809,2.16967 -0.39386,7.99682 3.3642,5.82714 3.75809,-2.16967 0.39392,-7.99688 -3.3642,-5.82714 m 10,0 c -3.75802,2.16967 -0.39392,7.99688 3.3642,5.82714 3.75809,-2.16967 0.39389,-7.99682 -3.3642,-5.82714 m 10,0 c -3.75802,2.16967 -0.39392,7.99688 3.3642,5.82714 3.75806,-2.16967 0.39392,-7.99688 -3.3642,-5.82714 m -360.999998,10 c -3.758034,2.16967 -0.393937,7.99688 3.364196,5.82714 3.758052,-2.16967 0.393912,-7.99688 -3.364196,-5.82714 m 29.999998,0 c -3.75805,2.16967 -0.39392,7.99688 3.3642,5.82714 3.75802,-2.16967 0.39392,-7.99688 -3.3642,-5.82714 m 20,0 c -3.75801,2.16967 -0.39392,7.99688 3.3642,5.82714 3.75801,-2.16967 0.39392,-7.99688 -3.3642,-5.82714 m 10,0 c -3.75802,2.16967 -0.39392,7.99688 3.3642,5.82714 3.75802,-2.16967 0.39392,-7.99688 -3.3642,-5.82714 m 30,0 c -3.75801,2.16967 -0.39392,7.99688 3.3642,5.82714 3.75801,-2.16967 0.39393,-7.99688 -3.3642,-5.82714 m 10,0 c -3.75801,2.16967 -0.39392,7.99688 3.3642,5.82714 3.75801,-2.16967 0.39392,-7.99688 -3.3642,-5.82714 m 20,0 c -3.75801,2.16967 -0.39392,7.99688 3.3642,5.82714 3.75802,-2.16967 0.39393,-7.99688 -3.3642,-5.82714 m 30,0 c -3.75801,2.16967 -0.39392,7.99688 3.3642,5.82714 3.75802,-2.16967 0.39392,-7.99688 -3.3642,-5.82714 m 10,0 c -3.75801,2.16967 -0.39392,7.99688 3.3642,5.82714 3.75809,-2.16967 0.39392,-7.99688 -3.3642,-5.82714 m 10,0 c -3.75806,2.16967 -0.39392,7.99688 3.3642,5.82714 3.75809,-2.16967 0.39392,-7.99688 -3.3642,-5.82714 m 31,0 c -3.75806,2.16967 -0.39392,7.99688 3.3642,5.82714 3.75809,-2.16967 0.39392,-7.99688 -3.3642,-5.82714 m 10,0 c -3.75806,2.16967 -0.39389,7.99682 3.3642,5.82714 3.75809,-2.16967 0.39392,-7.99688 -3.3642,-5.82714 m 30,0 c -3.75806,2.16967 -0.39392,7.99688 3.3642,5.82714 3.75809,-2.16967 0.39392,-7.99688 -3.3642,-5.82714 m 10,0 c -3.75802,2.16967 -0.39392,7.99688 3.3642,5.82714 3.75809,-2.16967 0.39392,-7.99688 -3.3642,-5.82714 m 10,0 c -3.75802,2.16967 -0.39392,7.99688 3.3642,5.82714 3.75812,-2.16973 0.39389,-7.99682 -3.3642,-5.82714 m 30,0 c -3.75802,2.16967 -0.39392,7.99688 3.3642,5.82714 3.75806,-2.16967 0.39395,-7.99688 -3.3642,-5.82714 m 10,0 c -3.75802,2.16967 -0.39392,7.99688 3.3642,5.82714 3.75806,-2.16967 0.39392,-7.99688 -3.3642,-5.82714 m 10,0 c -3.75806,2.16967 -0.39392,7.99688 3.3642,5.82714 3.75809,-2.16967 0.39389,-7.99682 -3.3642,-5.82714 m 20,0 c -3.75802,2.16967 -0.39395,7.99688 3.3642,5.82714 3.75809,-2.16967 0.39389,-7.99682 -3.3642,-5.82714 m 10,0 c -3.75806,2.16967 -0.39386,7.99682 3.3642,5.82714 3.75809,-2.16967 0.39392,-7.99688 -3.3642,-5.82714 m 20,0 c -3.75802,2.16967 -0.39392,7.99688 3.3642,5.82714 3.75809,-2.16967 0.39392,-7.99688 -3.3642,-5.82714 m -351,10 c -3.75805,2.16967 -0.39392,7.99688 3.3642,5.82714 3.75803,-2.16967 0.39393,-7.99688 -3.3642,-5.82714 m 10,0 c -3.75805,2.16967 -0.39393,7.99688 3.3642,5.82714 3.75803,-2.16967 0.39393,-7.99688 -3.3642,-5.82714 m 10,0 c -3.75806,2.16967 -0.3939,7.99688 3.3642,5.82714 3.75804,-2.16967 0.39392,-7.99688 -3.3642,-5.82714 m 10,0 c -3.75804,2.16967 -0.39389,7.99688 3.3642,5.82714 3.75802,-2.16967 0.39392,-7.99688 -3.3642,-5.82714 m 10,0 c -3.75804,2.16967 -0.3939,7.99688 3.3642,5.82714 3.75801,-2.16967 0.39392,-7.99688 -3.3642,-5.82714 m 60,0 c -3.75802,2.16967 -0.3939,7.99688 3.3642,5.82714 3.75799,-2.16967 0.39393,-7.99688 -3.3642,-5.82714 m 30,0 c -3.75802,2.16967 -0.3939,7.99688 3.3642,5.82714 3.75801,-2.16967 0.39393,-7.99688 -3.3642,-5.82714 m 20,0 c -3.75804,2.16967 -0.3939,7.99682 3.3642,5.82714 3.75809,-2.16967 0.39392,-7.99688 -3.3642,-5.82714 m 10,0 c -3.75802,2.16967 -0.39392,7.99688 3.3642,5.82714 3.75809,-2.16967 0.39392,-7.99688 -3.3642,-5.82714 m 10.00385,-0.0394 c -4.24408,2.66656 0.39874,8.39258 4.3565,5.90588 4.24424,-2.66669 -0.39883,-8.39252 -4.3565,-5.90588 m 10.99615,0.0394 c -3.75802,2.16967 -0.39392,7.99688 3.3642,5.82714 3.75812,-2.16967 0.39389,-7.99682 -3.3642,-5.82714 m 20,0 c -3.75806,2.16967 -0.39389,7.99682 3.3642,5.82714 3.75809,-2.16967 0.39392,-7.99688 -3.3642,-5.82714 m 10,0 c -3.75802,2.16967 -0.39392,7.99688 3.3642,5.82714 3.75809,-2.16967 0.39389,-7.99682 -3.3642,-5.82714 m 20,0 c -3.75802,2.16967 -0.39392,7.99688 3.3642,5.82714 3.75809,-2.16967 0.39392,-7.99688 -3.3642,-5.82714 m 10,0 c -3.75799,2.16967 -0.39392,7.99688 3.3642,5.82714 3.75809,-2.16967 0.39392,-7.99688 -3.3642,-5.82714 m 10,0 c -3.75802,2.16967 -0.39392,7.99688 3.3642,5.82714 3.75812,-2.16973 0.39389,-7.99682 -3.3642,-5.82714 m 10,0 c -3.75799,2.16967 -0.39395,7.99688 3.3642,5.82714 3.75809,-2.16967 0.39392,-7.99688 -3.3642,-5.82714 m 30,0 c -3.75802,2.16967 -0.39392,7.99688 3.3642,5.82714 3.75806,-2.16967 0.39392,-7.99682 -3.3642,-5.82714 m 10,0 c -3.75802,2.16967 -0.39392,7.99688 3.3642,5.82714 3.75809,-2.16967 0.39389,-7.99682 -3.3642,-5.82714 m 20,0 c -3.75802,2.16967 -0.39395,7.99688 3.3642,5.82714 3.75809,-2.16967 0.39389,-7.99682 -3.3642,-5.82714 m 30,0 c -3.75802,2.16967 -0.39392,7.99688 3.3642,5.82714 3.75806,-2.16967 0.39392,-7.99688 -3.3642,-5.82714 m -360.999998,10 c -3.758042,2.16967 -0.393929,7.99688 3.364196,5.82714 3.758052,-2.16967 0.393932,-7.99688 -3.364196,-5.82714 m 9.999998,0 c -3.75806,2.16967 -0.39391,7.99688 3.3642,5.82714 3.75805,-2.16967 0.39393,-7.99688 -3.3642,-5.82714 m 30,0 c -3.75802,2.16967 -0.3939,7.99688 3.3642,5.82714 3.75804,-2.16967 0.3939,-7.99688 -3.3642,-5.82714 m 20,0 c -3.75804,2.16967 -0.3939,7.99688 3.3642,5.82714 3.75804,-2.16967 0.3939,-7.99688 -3.3642,-5.82714 m 10,0 c -3.75801,2.16967 -0.39393,7.99688 3.3642,5.82714 3.75804,-2.16967 0.3939,-7.99688 -3.3642,-5.82714 m 20,0 c -3.75802,2.16967 -0.3939,7.99688 3.3642,5.82714 3.75802,-2.16967 0.39392,-7.99688 -3.3642,-5.82714 m 60,0 c -3.75802,2.16967 -0.3939,7.99688 3.3642,5.82714 3.75804,-2.16967 0.3939,-7.99688 -3.3642,-5.82714 m 20,0 c -3.75806,2.16967 -0.39392,7.99688 3.3642,5.82714 3.75809,-2.16967 0.39392,-7.99688 -3.3642,-5.82714 m 21,0 c -3.75806,2.16967 -0.39389,7.99682 3.3642,5.82714 3.75812,-2.16973 0.39389,-7.99682 -3.3642,-5.82714 m 10,0 c -3.75806,2.16967 -0.39392,7.99688 3.3642,5.82714 3.75809,-2.16967 0.39389,-7.99682 -3.3642,-5.82714 m 10,0 c -3.75806,2.16967 -0.39389,7.99682 3.3642,5.82714 3.75809,-2.16967 0.39392,-7.99688 -3.3642,-5.82714 m 10,0 c -3.75806,2.16967 -0.39392,7.99688 3.3642,5.82714 3.75809,-2.16967 0.39389,-7.99682 -3.3642,-5.82714 m 10,0 c -3.75806,2.16967 -0.39392,7.99688 3.3642,5.82714 3.75809,-2.16967 0.39389,-7.99682 -3.3642,-5.82714 m 10,0 c -3.75806,2.16967 -0.39392,7.99688 3.3642,5.82714 3.75809,-2.16967 0.39392,-7.99688 -3.3642,-5.82714 m 40,0 c -3.75802,2.16967 -0.39395,7.99688 3.3642,5.82714 3.75809,-2.16967 0.39392,-7.99688 -3.3642,-5.82714 m 10,0 c -3.75802,2.16967 -0.39392,7.99688 3.3642,5.82714 3.75806,-2.16967 0.39395,-7.99688 -3.3642,-5.82714 m 10,0 c -3.75806,2.16967 -0.39392,7.99688 3.3642,5.82714 3.75806,-2.16967 0.39389,-7.99682 -3.3642,-5.82714 m 10,0 c -3.75806,2.16967 -0.39392,7.99682 3.3642,5.82714 3.75809,-2.16967 0.39389,-7.99682 -3.3642,-5.82714 m 10,0 c -3.75802,2.16967 -0.39395,7.99688 3.3642,5.82714 3.75806,-2.16967 0.39392,-7.99688 -3.3642,-5.82714 m 10,0 c -3.75802,2.16967 -0.39395,7.99688 3.3642,5.82714 3.75809,-2.16967 0.39389,-7.99682 -3.3642,-5.82714 m 20,0 c -3.75802,2.16967 -0.39395,7.99688 3.3642,5.82714 3.75809,-2.16967 0.39389,-7.99682 -3.3642,-5.82714 m 10,0 c -3.75802,2.16967 -0.39392,7.99688 3.3642,5.82714 3.75806,-2.16967 0.39392,-7.99688 -3.3642,-5.82714 m -281,10 c -3.75802,2.16967 -0.3939,7.99688 3.3642,5.82714 3.75802,-2.16967 0.3939,-7.99688 -3.3642,-5.82714 m 20,0 c -3.75802,2.16967 -0.39392,7.99688 3.3642,5.82714 3.75802,-2.16967 0.39392,-7.99688 -3.3642,-5.82714 m 20,0 c -3.75802,2.16967 -0.39392,7.99688 3.3642,5.82714 3.75802,-2.16967 0.39392,-7.99688 -3.3642,-5.82714 m 10,0 c -3.75802,2.16967 -0.3939,7.99688 3.3642,5.82714 3.75804,-2.16967 0.39392,-7.99688 -3.3642,-5.82714 m 20,0 c -3.75802,2.16967 -0.3939,7.99688 3.3642,5.82714 3.75802,-2.16967 0.3939,-7.99688 -3.3642,-5.82714 m 20,0 c -3.75806,2.16967 -0.39389,7.99682 3.3642,5.82714 3.75809,-2.16967 0.39392,-7.99688 -3.3642,-5.82714 m 41,0 c -3.75806,2.16967 -0.39389,7.99682 3.3642,5.82714 3.75809,-2.16967 0.39392,-7.99688 -3.3642,-5.82714 m 20,0 c -3.75806,2.16967 -0.39392,7.99688 3.3642,5.82714 3.75809,-2.16967 0.39389,-7.99682 -3.3642,-5.82714 m 40,0 c -3.75802,2.16967 -0.39395,7.99688 3.3642,5.82714 3.75809,-2.16967 0.39392,-7.99688 -3.3642,-5.82714 m 10,0 c -3.75799,2.16967 -0.39395,7.99688 3.3642,5.82714 3.75809,-2.16967 0.39392,-7.99688 -3.3642,-5.82714 m 40,0 c -3.75802,2.16967 -0.39392,7.99688 3.3642,5.82714 3.75806,-2.16967 0.39392,-7.99688 -3.3642,-5.82714 m 10,0 c -3.75802,2.16967 -0.39392,7.99688 3.3642,5.82714 3.75809,-2.16967 0.39389,-7.99682 -3.3642,-5.82714 m -327.31404,8.65588 C 93.675018,578.19415 93.009857,584.10339 93,590 v 36 c 0,4.91583 -0.903862,10.81042 2.43364,14.89124 3.756019,4.5924 9.21069,4.10839 14.56636,4.10876 13.04661,8.5e-4 33.83044,3.98602 45.99538,-0.74231 6.14947,-2.39014 6.97566,-8.48962 7.00386,-14.25769 0.0587,-11.99939 7.6e-4,-24.00049 7.6e-4,-36 0,-4.91577 0.90385,-10.81049 -2.43364,-14.89124 C 156.81033,574.51636 151.35568,575.00037 146,575 c -13.05991,-8.5e-4 -33.81353,-3.97742 -45.99614,0.74231 m 86.31404,1.34412 c -3.75804,2.16967 -0.3939,7.99688 3.3642,5.82714 3.75802,-2.16967 0.39392,-7.99688 -3.3642,-5.82714 m 20,0 c -3.75802,2.16967 -0.3939,7.99688 3.3642,5.82714 3.75801,-2.16967 0.39393,-7.99688 -3.3642,-5.82714 m 50,0 c -3.75804,2.16967 -0.39389,7.99682 3.3642,5.82714 3.75809,-2.16967 0.39392,-7.99688 -3.3642,-5.82714 m 10,0 c -3.75806,2.16967 -0.39392,7.99688 3.3642,5.82714 3.75809,-2.16967 0.39392,-7.99688 -3.3642,-5.82714 m 51,0 c -3.75806,2.16967 -0.39392,7.99688 3.3642,5.82714 3.75812,-2.16973 0.39389,-7.99682 -3.3642,-5.82714 m 20,0 c -3.75806,2.16967 -0.39389,7.99682 3.3642,5.82714 3.75809,-2.16967 0.39392,-7.99688 -3.3642,-5.82714 m 10,0 c -3.75802,2.16967 -0.39389,7.99682 3.3642,5.82714 3.75809,-2.16967 0.39389,-7.99682 -3.3642,-5.82714 m 20,0 c -3.75802,2.16967 -0.39395,7.99688 3.3642,5.82714 3.75809,-2.16967 0.39392,-7.99688 -3.3642,-5.82714 m 10,0 c -3.75799,2.16967 -0.39395,7.99688 3.3642,5.82714 3.75809,-2.16967 0.39392,-7.99688 -3.3642,-5.82714 m 20,0 c -3.75806,2.16967 -0.39389,7.99682 3.3642,5.82714 3.75809,-2.16967 0.39389,-7.99682 -3.3642,-5.82714 m 20,0 c -3.75802,2.16967 -0.39392,7.99688 3.3642,5.82714 3.75806,-2.16967 0.39392,-7.99688 -3.3642,-5.82714 m 10,0 c -3.75802,2.16967 -0.39392,7.99688 3.3642,5.82714 3.75809,-2.16967 0.39389,-7.99682 -3.3642,-5.82714 m 20,0 c -3.75802,2.16967 -0.39392,7.99688 3.3642,5.82714 3.75812,-2.16967 0.39389,-7.99682 -3.3642,-5.82714 m -336.31713,8.34722 c 8.66663,-2.38317 34.90644,-3.50592 40.25695,4.6103 2.29109,3.4754 1.74204,7.9967 1.74228,11.95605 6e-4,9.2511 3.92412,29.2832 -8.00076,32.56635 -8.66465,2.38555 -34.90773,3.50396 -40.25695,-4.6103 C 102.45119,626.48065 103.00025,621.95929 103,618 c -6e-4,-9.35754 -4.019295,-29.26099 8.00077,-32.56635 m 65.31713,1.65278 c -3.75801,2.16967 -0.39392,7.99688 3.3642,5.82714 3.75804,-2.16967 0.3939,-7.99688 -3.3642,-5.82714 m 20,0 c -3.75801,2.16967 -0.39392,7.99688 3.3642,5.82714 3.75802,-2.16967 0.39392,-7.99688 -3.3642,-5.82714 m 10,0 c -3.75801,2.16967 -0.39392,7.99688 3.3642,5.82714 3.75801,-2.16967 0.39392,-7.99688 -3.3642,-5.82714 m 30,0 c -3.75801,2.16967 -0.39392,7.99688 3.3642,5.82714 3.75802,-2.16967 0.39392,-7.99688 -3.3642,-5.82714 m 10,0 c -3.75801,2.16967 -0.39392,7.99688 3.3642,5.82714 3.75804,-2.16967 0.3939,-7.99688 -3.3642,-5.82714 m 51,0 c -3.75806,2.16967 -0.39392,7.99688 3.3642,5.82714 3.75809,-2.16967 0.39389,-7.99682 -3.3642,-5.82714 m 10,0 c -3.75806,2.16967 -0.39389,7.99682 3.3642,5.82714 3.75809,-2.16967 0.39392,-7.99682 -3.3642,-5.82714 m 20,0 c -3.75802,2.16967 -0.39395,7.99688 3.3642,5.82714 3.75812,-2.16973 0.39389,-7.99682 -3.3642,-5.82714 m 10,0 c -3.75806,2.16967 -0.39392,7.99688 3.3642,5.82714 3.75809,-2.16967 0.39392,-7.99688 -3.3642,-5.82714 m 10,0 c -3.75802,2.16967 -0.39392,7.99682 3.3642,5.82714 3.75809,-2.16967 0.39389,-7.99682 -3.3642,-5.82714 m 30,0 c -3.75799,2.16967 -0.39395,7.99688 3.3642,5.82714 3.75809,-2.16967 0.39392,-7.99688 -3.3642,-5.82714 m 40,0 c -3.75799,2.16967 -0.39395,7.99688 3.3642,5.82714 3.75806,-2.16967 0.39392,-7.99688 -3.3642,-5.82714 m 10,0 c -3.75802,2.16967 -0.39395,7.99688 3.3642,5.82714 3.75809,-2.16967 0.39389,-7.99682 -3.3642,-5.82714 m 10,0 c -3.75806,2.16967 -0.39386,7.99682 3.3642,5.82714 3.75809,-2.16967 0.39389,-7.99682 -3.3642,-5.82714 m 10,0 c -3.75802,2.16967 -0.39395,7.99688 3.3642,5.82714 3.75809,-2.16967 0.39389,-7.99682 -3.3642,-5.82714 m 10,0 c -3.75802,2.16967 -0.39392,7.99688 3.3642,5.82714 3.75809,-2.16967 0.39389,-7.99682 -3.3642,-5.82714 m -337.31404,8.65588 c -8.28011,3.20776 -9.8192,18.73102 -4.57022,25.14893 4.09582,5.00793 14.76465,5.61975 20.56174,3.36645 8.21321,-3.19226 9.76091,-18.80322 4.57098,-25.14893 -4.09938,-5.0122 -14.76086,-5.61413 -20.5625,-3.36645 m 76.31404,1.34412 c -3.75802,2.16967 -0.39392,7.99688 3.3642,5.82714 3.75801,-2.16967 0.39392,-7.99688 -3.3642,-5.82714 m 20,0 c -3.75802,2.16967 -0.39392,7.99688 3.3642,5.82714 3.75802,-2.16967 0.39392,-7.99688 -3.3642,-5.82714 m 50,0 c -3.75802,2.16967 -0.39392,7.99688 3.3642,5.82714 3.75809,-2.16967 0.39392,-7.99688 -3.3642,-5.82714 m 21,0 c -3.75806,2.16967 -0.39392,7.99688 3.3642,5.82714 3.75812,-2.16973 0.39386,-7.99682 -3.3642,-5.82714 m 30,0 c -3.75802,2.16967 -0.39392,7.99688 3.3642,5.82714 3.75809,-2.16967 0.39389,-7.99682 -3.3642,-5.82714 m 10,0 c -3.75802,2.16967 -0.39395,7.99688 3.3642,5.82714 3.75812,-2.16973 0.39389,-7.99682 -3.3642,-5.82714 m 30,0 c -3.75802,2.16967 -0.39392,7.99688 3.3642,5.82714 3.75812,-2.16973 0.39386,-7.99682 -3.3642,-5.82714 m 20,0 c -3.75799,2.16967 -0.39395,7.99688 3.3642,5.82714 3.75809,-2.16967 0.39392,-7.99688 -3.3642,-5.82714 m 10,0 c -3.75802,2.16967 -0.39392,7.99688 3.3642,5.82714 3.75806,-2.16967 0.39392,-7.99688 -3.3642,-5.82714 m 10,0 c -3.75802,2.16967 -0.39392,7.99688 3.3642,5.82714 3.75809,-2.16967 0.39389,-7.99682 -3.3642,-5.82714 m 10,0 c -3.75802,2.16967 -0.39392,7.99688 3.3642,5.82714 3.75809,-2.16967 0.39389,-7.99682 -3.3642,-5.82714 m 10,0 c -3.75799,2.16967 -0.39395,7.99688 3.3642,5.82714 3.75806,-2.16967 0.39392,-7.99688 -3.3642,-5.82714 m 10,0 c -3.75802,2.16967 -0.39395,7.99688 3.3642,5.82714 3.75809,-2.16967 0.39389,-7.99682 -3.3642,-5.82714 m -251,10 c -3.75804,2.16967 -0.3939,7.99688 3.3642,5.82714 3.75802,-2.16967 0.3939,-7.99688 -3.3642,-5.82714 m 20,0 c -3.75804,2.16967 -0.3939,7.99688 3.3642,5.82714 3.75801,-2.16967 0.39392,-7.99688 -3.3642,-5.82714 m 10,0 c -3.75802,2.16967 -0.3939,7.99688 3.3642,5.82714 3.75801,-2.16967 0.39393,-7.99688 -3.3642,-5.82714 m 10,0 c -3.75804,2.16967 -0.3939,7.99688 3.3642,5.82714 3.75802,-2.16967 0.39392,-7.99688 -3.3642,-5.82714 m 10,0 c -3.75802,2.16967 -0.3939,7.99688 3.3642,5.82714 3.75804,-2.16967 0.39392,-7.99688 -3.3642,-5.82714 m 20,0 c -3.75802,2.16967 -0.3939,7.99688 3.3642,5.82714 3.75802,-2.16967 0.3939,-7.99688 -3.3642,-5.82714 m 41,0 c -3.75806,2.16967 -0.39392,7.99688 3.3642,5.82714 3.75812,-2.16973 0.39389,-7.99682 -3.3642,-5.82714 m 10,0 c -3.75806,2.16967 -0.39392,7.99688 3.3642,5.82714 3.75809,-2.16967 0.39389,-7.99682 -3.3642,-5.82714 m 20,0 c -3.75806,2.16967 -0.39392,7.99688 3.3642,5.82714 3.75809,-2.16967 0.39389,-7.99682 -3.3642,-5.82714 m 10,0 c -3.75802,2.16967 -0.39395,7.99688 3.3642,5.82714 3.75809,-2.16967 0.39389,-7.99682 -3.3642,-5.82714 m 20,0 c -3.75802,2.16967 -0.39392,7.99688 3.3642,5.82714 3.75809,-2.16967 0.39389,-7.99682 -3.3642,-5.82714 m 20,0 c -3.75802,2.16967 -0.39395,7.99688 3.3642,5.82714 3.75809,-2.16967 0.39392,-7.99688 -3.3642,-5.82714 m 40,0 c -3.75802,2.16967 -0.39392,7.99688 3.3642,5.82714 3.75809,-2.16967 0.39389,-7.99682 -3.3642,-5.82714 m 10,0 c -3.75799,2.16967 -0.39395,7.99688 3.3642,5.82714 3.75806,-2.16967 0.39392,-7.99688 -3.3642,-5.82714 m 20,0 c -3.75806,2.16967 -0.39386,7.99682 3.3642,5.82714 3.75809,-2.16967 0.39389,-7.99682 -3.3642,-5.82714 m 10,0 c -3.75802,2.16967 -0.39395,7.99688 3.3642,5.82714 3.75809,-2.16967 0.39389,-7.99682 -3.3642,-5.82714 m 10,0 c -3.75802,2.16967 -0.39392,7.99688 3.3642,5.82714 3.75806,-2.16967 0.39389,-7.99682 -3.3642,-5.82714 m -271,10 c -3.75801,2.16967 -0.39392,7.99688 3.3642,5.82714 3.75802,-2.16967 0.39392,-7.99688 -3.3642,-5.82714 m 40,0 c -3.75801,2.16967 -0.39392,7.99688 3.3642,5.82714 3.75804,-2.16967 0.3939,-7.99688 -3.3642,-5.82714 m 10,0 c -3.75801,2.16967 -0.39393,7.99688 3.3642,5.82714 3.75801,-2.16967 0.39392,-7.99688 -3.3642,-5.82714 m 20,0 c -3.75801,2.16967 -0.39392,7.99688 3.3642,5.82714 3.75809,-2.16967 0.39392,-7.99688 -3.3642,-5.82714 m 10,0 c -3.75806,2.16967 -0.39392,7.99688 3.3642,5.82714 3.75809,-2.16967 0.39392,-7.99688 -3.3642,-5.82714 m 31,0 c -3.75806,2.16967 -0.39389,7.99682 3.3642,5.82714 3.75809,-2.16967 0.39392,-7.99688 -3.3642,-5.82714 m 20,0 c -3.75806,2.16967 -0.39392,7.99688 3.3642,5.82714 3.75809,-2.16967 0.39389,-7.99682 -3.3642,-5.82714 m 40,0 c -3.75802,2.16967 -0.39389,7.99682 3.3642,5.82714 3.75812,-2.16973 0.39389,-7.99682 -3.3642,-5.82714 m 20,0 c -3.75799,2.16967 -0.39395,7.99688 3.3642,5.82714 3.75809,-2.16967 0.39392,-7.99688 -3.3642,-5.82714 m 30,0 c -3.75802,2.16967 -0.39389,7.99682 3.3642,5.82714 3.75809,-2.16967 0.39389,-7.99682 -3.3642,-5.82714 m 10,0 c -3.75799,2.16967 -0.39395,7.99688 3.3642,5.82714 3.75802,-2.16967 0.39392,-7.99688 -3.3642,-5.82714 m 20,0 c -3.75806,2.16967 -0.39386,7.99682 3.3642,5.82714 3.75809,-2.16967 0.39392,-7.99688 -3.3642,-5.82714 m 20,0 c -3.75802,2.16967 -0.39392,7.99688 3.3642,5.82714 3.75806,-2.16967 0.39392,-7.99688 -3.3642,-5.82714 m -261,10 c -3.75802,2.16967 -0.39392,7.99688 3.3642,5.82714 3.75801,-2.16967 0.39392,-7.99688 -3.3642,-5.82714 m 10,0 c -3.75802,2.16967 -0.39392,7.99688 3.3642,5.82714 3.75799,-2.16967 0.39393,-7.99688 -3.3642,-5.82714 m 10,0 c -3.75802,2.16967 -0.39392,7.99688 3.3642,5.82714 3.75801,-2.16967 0.39392,-7.99688 -3.3642,-5.82714 m 30,0 c -3.75802,2.16967 -0.3939,7.99688 3.3642,5.82714 3.75801,-2.16967 0.39392,-7.99688 -3.3642,-5.82714 m 61,0 c -3.75806,2.16967 -0.39389,7.99682 3.3642,5.82714 3.75806,-2.16967 0.39392,-7.99688 -3.3642,-5.82714 m 10,0 c -3.75806,2.16967 -0.39392,7.99688 3.3642,5.82714 3.75809,-2.16967 0.39392,-7.99688 -3.3642,-5.82714 m 30,0 c -3.75802,2.16967 -0.39389,7.99682 3.3642,5.82714 3.75809,-2.16967 0.39392,-7.99688 -3.3642,-5.82714 m 20,0 c -3.75802,2.16967 -0.39395,7.99688 3.3642,5.82714 3.75809,-2.16967 0.39392,-7.99688 -3.3642,-5.82714 m 20,0 c -3.75802,2.16967 -0.39392,7.99688 3.3642,5.82714 3.75806,-2.16967 0.39395,-7.99688 -3.3642,-5.82714 m 10,0 c -3.75806,2.16967 -0.39389,7.99682 3.3642,5.82714 3.75806,-2.16967 0.39392,-7.99688 -3.3642,-5.82714 m 10,0 c -3.75806,2.16967 -0.39389,7.99682 3.3642,5.82714 3.75809,-2.16967 0.39392,-7.99682 -3.3642,-5.82714 m 30,0 c -3.75806,2.16967 -0.39386,7.99682 3.3642,5.82714 3.75809,-2.16967 0.39392,-7.99688 -3.3642,-5.82714 m -261,10 c -3.75802,2.16967 -0.3939,7.99688 3.3642,5.82714 3.75804,-2.16967 0.39389,-7.99682 -3.3642,-5.82714 m 20,0 c -3.75802,2.16967 -0.39392,7.99688 3.3642,5.82714 3.75804,-2.16967 0.3939,-7.99688 -3.3642,-5.82714 m 10,0 c -3.75801,2.16967 -0.39392,7.99688 3.3642,5.82714 3.75802,-2.16967 0.39392,-7.99688 -3.3642,-5.82714 m 50,0 c -3.75802,2.16967 -0.39392,7.99688 3.3642,5.82714 3.75809,-2.16967 0.39392,-7.99688 -3.3642,-5.82714 m 10,0 c -3.75806,2.16967 -0.39392,7.99688 3.3642,5.82714 3.75809,-2.16967 0.39392,-7.99688 -3.3642,-5.82714 m 21,0 c -3.75806,2.16967 -0.39389,7.99682 3.3642,5.82714 3.75812,-2.16973 0.39389,-7.99682 -3.3642,-5.82714 m 10,0 c -3.75806,2.16967 -0.39389,7.99682 3.3642,5.82714 3.75809,-2.16967 0.39392,-7.99688 -3.3642,-5.82714 m 10,0 c -3.75806,2.16967 -0.39389,7.99682 3.3642,5.82714 3.75809,-2.16967 0.39392,-7.99688 -3.3642,-5.82714 m 40,0 c -3.75802,2.16967 -0.39389,7.99682 3.3642,5.82714 3.75809,-2.16967 0.39392,-7.99682 -3.3642,-5.82714 m 20,0 c -3.75802,2.16967 -0.39395,7.99688 3.3642,5.82714 3.75809,-2.16967 0.39392,-7.99688 -3.3642,-5.82714 m 70,0 c -3.75806,2.16967 -0.39386,7.99682 3.3642,5.82714 3.75809,-2.16967 0.39392,-7.99688 -3.3642,-5.82714 m 10,0 c -3.75802,2.16967 -0.39392,7.99688 3.3642,5.82714 3.75809,-2.16967 0.39389,-7.99682 -3.3642,-5.82714 m 10,0 c -3.75802,2.16967 -0.39392,7.99688 3.3642,5.82714 3.75806,-2.16967 0.39392,-7.99688 -3.3642,-5.82714 z"></path>
            <path d="m 269.45134,490.07981 c -1.04234,-0.65472 -1.10606,-0.9689 -1.10606,-5.45255 v -4.04769 l -3.99507,-0.002 c -4.73433,-0.003 -6.44748,-0.27178 -8.72233,-1.36985 -2.80384,-1.3534 -4.7746,-3.27128 -6.07867,-5.91553 -1.36732,-2.77252 -1.29431,-1.81009 -1.359,-17.91193 -0.0373,-9.29412 0.007,-14.88618 0.1245,-15.77159 0.38894,-2.9258 1.45788,-5.07129 3.61129,-7.24839 1.55663,-1.57372 3.01547,-2.48358 5.15115,-3.21268 l 1.34632,-0.45962 19.72117,-0.0483 c 19.30568,-0.0473 19.75285,-0.0408 21.22436,0.30873 2.2653,0.538 4.08557,1.56286 5.76823,3.24765 1.5934,1.59542 2.5117,3.05477 3.20707,5.09665 l 0.47842,1.40486 v 15.71684 15.71684 l -0.45961,1.34631 c -1.59988,4.68633 -5.32013,7.9007 -10.23176,8.84045 -1.02655,0.19641 -2.70633,0.26186 -6.72072,0.26186 h -5.3521 l -6.00301,4.16481 c -8.64647,5.9988 -7.92918,5.55353 -9.06275,5.62597 -0.75438,0.0482 -1.10832,-0.0185 -1.54143,-0.29055 z m 9.4066,-9.57925 5.96394,-4.13555 h 6.12459 c 6.63751,0 7.2367,-0.0654 9.18369,-1.00227 1.27498,-0.6135 3.11142,-2.47427 3.74682,-3.79643 0.98254,-2.04447 0.98848,-2.14816 0.98848,-17.24 0,-15.26239 -0.003,-15.31092 -1.06287,-17.29945 -0.70812,-1.32859 -1.98038,-2.60556 -3.29294,-3.30515 -2.11586,-1.12775 -1.21138,-1.08288 -21.8318,-1.08288 -12.96976,0 -19.03112,0.0596 -19.67501,0.19346 -2.18498,0.45426 -4.359,1.96863 -5.4729,3.81227 -1.29813,2.14855 -1.23597,1.34592 -1.30123,16.80371 -0.0381,9.01156 0.006,14.36526 0.1256,15.27783 0.47006,3.58549 3.0385,6.45844 6.58898,7.37015 0.8211,0.21084 2.13724,0.26876 6.10799,0.26876 5.55031,0 5.76806,0.0338 6.71833,1.04311 l 0.52682,0.55955 0.0545,3.42796 c 0.0452,2.84021 0.0964,3.4119 0.29878,3.33422 0.13437,-0.0515 2.92808,-1.95474 6.20825,-4.22929 z m -2.62015,-11.70399 c -8.2629,-6.61064 -11.81901,-10.14743 -13.44513,-13.37209 -3.1146,-6.17641 0.54269,-13.2292 7.22088,-13.92485 2.81233,-0.29295 5.94981,1.19997 8.13461,3.87072 0.54464,0.66578 0.585,0.6841 0.77361,0.35121 0.37146,-0.65561 2.11123,-2.36232 2.96949,-2.91306 2.71259,-1.74067 6.65224,-1.65495 9.43809,0.20537 3.95969,2.64418 5.20727,7.91246 2.93897,12.41061 -0.32858,0.6516 -0.9484,1.65886 -1.37737,2.23836 -0.84289,1.1387 -4.35155,4.62941 -8.82883,8.78368 -1.54534,1.43386 -3.28826,3.069 -3.87315,3.63367 l -1.06345,1.02666 z"></path>
          </g>
        </svg>